<svg width="205" height="305" viewBox="0 0 205 305" fill="none" xmlns="http://www.w3.org/2000/svg">
<g opacity="0.6">
<path d="M117.648 221.59L75.0574 197L32.1054 221.372L74.9055 246.18L117.648 221.59Z" stroke="#9CACFF" stroke-linejoin="round"/>
<path d="M74.8828 295.36V246.18L32.0828 221.372L31.9968 270.772L74.8828 295.36Z" stroke="#9CACFF" stroke-linejoin="round"/>
<path d="M117.648 270.512V221.59L74.9025 246.18V295.36L117.648 270.512Z" stroke="#9CACFF" stroke-linejoin="round"/>
<path d="M203.648 270.59L161.057 246L118.105 270.372L160.905 295.18L203.648 270.59Z" stroke="#9CACFF" stroke-linejoin="round"/>
<path d="M160.883 344.36V295.18L118.083 270.372L117.997 319.772L160.883 344.36Z" stroke="#9CACFF" stroke-linejoin="round"/>
<path d="M203.648 319.512V270.59L160.902 295.18V344.36L203.648 319.512Z" stroke="#9CACFF" stroke-linejoin="round"/>
<path d="M160.648 246.59L118.057 222L75.1054 246.372L117.905 271.18L160.648 246.59Z" stroke="#9CACFF" stroke-linejoin="round"/>
<path d="M117.883 320.36V271.18L75.0828 246.372L74.9968 295.772L117.883 320.36Z" stroke="#9CACFF" stroke-linejoin="round"/>
<path d="M160.648 295.512V246.59L117.902 271.18V320.36L160.648 295.512Z" stroke="#9CACFF" stroke-linejoin="round"/>
<path d="M74.6484 147.59L32.0574 123L-10.8946 147.372L31.9055 172.18L74.6484 147.59Z" stroke="#9CACFF" stroke-linejoin="round"/>
<path d="M31.8828 221.36V172.18L-10.9172 147.372L-11.0032 196.772L31.8828 221.36Z" stroke="#9CACFF" stroke-linejoin="round"/>
<path d="M74.6484 196.512V147.59L31.9025 172.18V221.36L74.6484 196.512Z" stroke="#9CACFF" stroke-linejoin="round"/>
</g>
<g opacity="0.6">
<path d="M74.6484 99.59L32.0574 75L-10.8946 99.372L31.9055 124.18L74.6484 99.59Z" stroke="#9CACFF" stroke-linejoin="round"/>
<path d="M31.8828 173.36V124.18L-10.9172 99.3721L-11.0032 148.772L31.8828 173.36Z" stroke="#9CACFF" stroke-linejoin="round"/>
<path d="M74.6484 148.512V99.5901L31.9025 124.18V173.36L74.6484 148.512Z" stroke="#9CACFF" stroke-linejoin="round"/>
<path d="M160.648 148.59L118.057 124L75.1054 148.372L117.905 173.18L160.648 148.59Z" stroke="#9CACFF" stroke-linejoin="round"/>
<path d="M117.883 222.36V173.18L75.0828 148.372L74.9968 197.772L117.883 222.36Z" stroke="#9CACFF" stroke-linejoin="round"/>
<path d="M160.648 197.512V148.59L117.902 173.18V222.36L160.648 197.512Z" stroke="#9CACFF" stroke-linejoin="round"/>
<path d="M117.648 124.59L75.0574 100L32.1054 124.372L74.9055 149.18L117.648 124.59Z" stroke="#9CACFF" stroke-linejoin="round"/>
<path d="M74.8828 198.36V149.18L32.0828 124.372L31.9968 173.772L74.8828 198.36Z" stroke="#9CACFF" stroke-linejoin="round"/>
<path d="M117.648 173.512V124.59L74.9025 149.18V198.36L117.648 173.512Z" stroke="#9CACFF" stroke-linejoin="round"/>
<path d="M31.6484 25.59L-10.9426 1L-53.8946 25.372L-11.0945 50.1801L31.6484 25.59Z" stroke="#9CACFF" stroke-linejoin="round"/>
<path d="M31.6484 74.5121V25.5901L-11.0975 50.1801V99.3601L31.6484 74.5121Z" stroke="#9CACFF" stroke-linejoin="round"/>
</g>
</svg>
