<svg width="28" height="28" viewBox="0 0 28 28" fill="none" xmlns="http://www.w3.org/2000/svg">
<path d="M8.13687 8.798C7.95438 8.6155 7.95438 8.31954 8.13687 8.13694C8.31937 7.95435 8.61534 7.95435 8.79793 8.13694L13.8981 13.2371L18.9983 8.13694C19.1808 7.95435 19.4768 7.95435 19.6595 8.13694C19.842 8.31944 19.842 8.6155 19.6595 8.798L14.5591 13.8981L19.6594 18.9984C19.8419 19.1809 19.8419 19.4768 19.6594 19.6594C19.4768 19.842 19.1808 19.842 18.9982 19.6594L13.898 14.5592L8.79793 19.6594C8.61543 19.842 8.31946 19.842 8.13687 19.6594C7.95438 19.4769 7.95438 19.181 8.13687 18.9984L13.2371 13.8981L8.13687 8.798Z" fill="#808080"/>
</svg>
