<svg xmlns="http://www.w3.org/2000/svg" width="40.997" height="33.36" viewBox="0 0 40.997 33.36">
  <path id="Icon_ionic-logo-twitter" data-name="Icon ionic-logo-twitter" d="M42.41,8.453a17,17,0,0,1-4.83,1.329,8.44,8.44,0,0,0,3.7-4.657,16.713,16.713,0,0,1-5.343,2.042,8.408,8.408,0,0,0-14.552,5.751,8.234,8.234,0,0,0,.217,1.92,23.836,23.836,0,0,1-17.34-8.8A8.428,8.428,0,0,0,6.878,17.279a8.215,8.215,0,0,1-3.823-1.051v.1a8.418,8.418,0,0,0,6.75,8.253,8.467,8.467,0,0,1-2.215.3,7.935,7.935,0,0,1-1.581-.156,8.424,8.424,0,0,0,7.862,5.847A16.864,16.864,0,0,1,3.42,34.177a17.049,17.049,0,0,1-2.007-.122A23.51,23.51,0,0,0,14.288,37.86c15.49,0,23.952-12.832,23.952-23.96,0-.365-.009-.73-.026-1.086A17.122,17.122,0,0,0,42.41,8.453Z" transform="translate(-1.413 -4.5)" fill="#919ede"/>
</svg>
