<svg xmlns="http://www.w3.org/2000/svg" xmlns:xlink="http://www.w3.org/1999/xlink" width="1242.209" height="236.689" viewBox="0 0 1242.209 236.689"><defs>
        <linearGradient id="a" x1="0.96" y1="0.571" x2="0.055" y2="0.635" gradientUnits="objectBoundingBox">
        <stop offset="0%" stop-color="#8d50ff" stop-opacity="0">
        <animate attributeName="stop-color" values="#8d50ff; #8957ff; #d971ff; #3ebbfd; #55ffeb; #8d50ff" dur="4s" repeatCount="indefinite"></animate>
        </stop>
        <stop offset="0.227" stop-color="#8957ff">
          <animate attributeName="stop-color" values="#8957ff; #d971ff; #3ebbfd; #55ffeb; #8d50ff" dur="4s" repeatCount="indefinite"></animate>
        </stop>
        <stop offset="0.514" stop-color="#d971ff">
        <animate attributeName="stop-color" values="#d971ff; #3ebbfd; #55ffeb; #8d50ff; #8957ff; #d971ff" dur="4s" repeatCount="indefinite"></animate>
        </stop>
        <stop offset="0.768" stop-color="#3ebbfd">
          <animate attributeName="stop-color" values="#3ebbfd; #55ffeb; #8d50ff; #8957ff; #d971ff; #3ebbfd" dur="4s" repeatCount="indefinite"></animate>
        </stop>
        <stop offset="100%" stop-color="#55ffeb"  stop-opacity="0"><animate attributeName="stop-color" values="#55ffeb; #8d50ff; #8957ff; #d971ff; #3ebbfd; #55ffeb;" dur="4s" repeatCount="indefinite"></animate></stop>
        </linearGradient>
                <!-- <linearGradient id="a" x1="0.96" y1="0.571" x2="0.055" y2="0.635" gradientUnits="objectBoundingBox">
        <stop offset="0%" stop-color="#8d50ff" stop-opacity="0"></stop>
        <stop offset="0.227" stop-color="#8957ff"></stop>
        <stop offset="0.514" stop-color="#d971ff"></stop>
        <stop offset="0.768" stop-color="#3ebbfd"></stop>
        <stop offset="1" stop-color="#55ffeb" stop-opacity="0"></stop>
        </linearGradient> -->

</defs><g transform="translate(0.003)"><path d="M340.637,374.077c7.162,0,14.391-.07,21.391-.138,22.788-.22,44.312-.429,66.049,1.513a263.8,263.8,0,0,1,32.432,4.8,201.89,201.89,0,0,1,32.072,9.658c12.461,4.933,25,10.542,37.134,15.967,17.722,7.925,36.043,16.12,53.843,22.037a201.411,201.411,0,0,0,26.563,7.036,129.265,129.265,0,0,0,26.34,2.365,139.416,139.416,0,0,0,25.922-3.021,211.305,211.305,0,0,0,25.822-7.2c17.2-5.889,34.587-13.753,51.407-21.359,11.869-5.369,24.143-10.919,36.191-15.7a201.147,201.147,0,0,1,31.071-9.476,254.012,254.012,0,0,1,31.009-4.783c20.646-1.971,41.64-1.86,61.94-1.752,4.668.025,9.5.051,14.246.051h326.263c-.006.474-.017.95-.023,1.424H914.068c-4.752,0-9.582-.026-14.252-.051-20.27-.108-41.232-.219-61.818,1.747a252.769,252.769,0,0,0-30.86,4.76,199.931,199.931,0,0,0-30.882,9.418c-12.021,4.775-24.28,10.314-36.137,15.675-16.847,7.615-34.266,15.492-51.518,21.4a212.475,212.475,0,0,1-25.973,7.243,140.544,140.544,0,0,1-26.146,3.046q-1.041.02-2.086.019a132.231,132.231,0,0,1-24.5-2.4,202.618,202.618,0,0,1-26.725-7.078c-17.858-5.936-36.209-14.144-53.958-22.082-12.118-5.419-24.648-11.023-37.084-15.946a200.805,200.805,0,0,0-31.876-9.6,262.562,262.562,0,0,0-32.283-4.779c-21.677-1.936-43.171-1.728-65.929-1.508-7,.068-14.232.138-21.4.138H2.253v-1.424Z" transform="translate(-2.253 -373.801)" fill="url(#a)"/></g><g transform="translate(0.003)"><path d="M340.637,374.077c7.162,0,14.391-.07,21.391-.138,22.788-.22,44.312-.429,66.049,1.513a263.8,263.8,0,0,1,32.432,4.8,201.89,201.89,0,0,1,32.072,9.658c12.461,4.933,25,10.542,37.134,15.967,17.722,7.925,36.043,16.12,53.843,22.037a201.411,201.411,0,0,0,26.563,7.036,129.265,129.265,0,0,0,26.34,2.365,139.416,139.416,0,0,0,25.922-3.021,211.305,211.305,0,0,0,25.822-7.2c17.2-5.889,34.587-13.753,51.407-21.359,11.869-5.369,24.143-10.919,36.191-15.7a201.147,201.147,0,0,1,31.071-9.476,254.012,254.012,0,0,1,31.009-4.783c20.646-1.971,41.64-1.86,61.94-1.752,4.668.025,9.5.051,14.246.051h326.263c-.006.474-.017.95-.023,1.424H914.068c-4.752,0-9.582-.026-14.252-.051-20.27-.108-41.232-.219-61.818,1.747a252.769,252.769,0,0,0-30.86,4.76,199.931,199.931,0,0,0-30.882,9.418c-12.021,4.775-24.28,10.314-36.137,15.675-16.847,7.615-34.266,15.492-51.518,21.4a212.475,212.475,0,0,1-25.973,7.243,140.544,140.544,0,0,1-26.146,3.046q-1.041.02-2.086.019a132.231,132.231,0,0,1-24.5-2.4,202.618,202.618,0,0,1-26.725-7.078c-17.858-5.936-36.209-14.144-53.958-22.082-12.118-5.419-24.648-11.023-37.084-15.946a200.805,200.805,0,0,0-31.876-9.6,262.562,262.562,0,0,0-32.283-4.779c-21.677-1.936-43.171-1.728-65.929-1.508-7,.068-14.232.138-21.4.138H2.253v-1.424Z" transform="translate(-2.253 -373.801)" fill="url(#a)"/></g><g transform="translate(0.005 15.648)"><path d="M340.779,389.576c5.821,0,11.707-.032,17.4-.063,23.5-.128,45.693-.248,68.093,1.621a300.814,300.814,0,0,1,33.408,4.549,226.242,226.242,0,0,1,33.022,9.039c13.174,4.727,26.426,10.265,39.243,15.621,17.373,7.258,35.327,14.763,52.773,20.071a195.619,195.619,0,0,0,26.04,6.181,127.292,127.292,0,0,0,25.828,1.653A167.083,167.083,0,0,0,662.527,445a249.044,249.044,0,0,0,25.835-6.743c17.2-5.4,34.6-12.465,51.417-19.294,11.868-4.817,24.139-9.8,36.184-14.131a226.572,226.572,0,0,1,32.2-8.92,290.9,290.9,0,0,1,32.135-4.546c21.4-1.9,43.164-1.851,64.212-1.808,3.177.006,6.465.013,9.7.013h326.12c0,.475-.008.95-.011,1.425H914.2c-3.231,0-6.52-.007-9.7-.013-21.019-.046-42.755-.091-64.1,1.8a289.649,289.649,0,0,0-32,4.526,225.368,225.368,0,0,0-32.024,8.871c-12.022,4.323-24.281,9.3-36.137,14.113-16.845,6.838-34.263,13.909-51.512,19.328a250.7,250.7,0,0,1-25.962,6.784,168.4,168.4,0,0,1-26.128,3.268q-2.456.1-4.942.1a132.657,132.657,0,0,1-21.134-1.769,196.7,196.7,0,0,1-26.2-6.219c-17.506-5.327-35.491-12.844-52.891-20.114-12.8-5.352-26.039-10.884-39.183-15.6a225.151,225.151,0,0,0-32.843-8.989,299.653,299.653,0,0,0-33.274-4.53c-22.343-1.864-44.513-1.744-67.985-1.617-5.7.031-11.583.063-17.408.063H2.4v-1.424Z" transform="translate(-2.396 -389.449)" fill="url(#a)"/></g><g transform="translate(0.005 31.171)"><path d="M340.831,405.071c5.785,0,11.63-.025,17.285-.049,5.835-.025,11.583-.05,17.283-.05,17.265,0,34.008.227,50.859,1.362,12.051.812,22.984,2.013,33.424,3.673a270.2,270.2,0,0,1,33.034,7.294c13.188,3.822,26.457,8.293,39.288,12.622,17.357,5.861,35.314,11.918,52.757,16.2a235.256,235.256,0,0,0,26.042,4.985,157.1,157.1,0,0,0,25.84,1.323A206.205,206.205,0,0,0,662.6,449.8c8.134-1.318,16.588-3.1,25.846-5.446,17.2-4.363,34.6-10.056,51.424-15.563,11.866-3.885,24.136-7.9,36.179-11.395a270.423,270.423,0,0,1,32.217-7.2c10.105-1.645,20.623-2.845,32.156-3.67,21.416-1.531,43.2-1.5,64.268-1.462,3.136.005,6.378.01,9.569.01H1240.33q0,.713,0,1.424H914.258c-3.192,0-6.435-.01-9.572-.01-21.043-.034-42.8-.069-64.178,1.459-11.494.822-21.977,2.018-32.045,3.657a269.21,269.21,0,0,0-32.072,7.167c-12.023,3.483-24.284,7.5-36.14,11.383-16.843,5.514-34.26,11.216-51.505,15.587-9.293,2.355-17.781,4.144-25.951,5.467a207.292,207.292,0,0,1-26.11,2.644q-2.49.087-5.01.087a163.216,163.216,0,0,1-21.028-1.421,236.235,236.235,0,0,1-26.178-5.01c-17.493-4.294-35.471-10.36-52.857-16.225-12.819-4.325-26.074-8.8-39.236-12.606a269.01,269.01,0,0,0-32.886-7.261c-10.4-1.654-21.3-2.851-33.314-3.66-16.819-1.133-33.534-1.36-50.782-1.36q-8.529.012-17.273.05c-5.656.024-11.505.049-17.291.049H2.447v-1.424Z" transform="translate(-2.447 -404.972)" fill="url(#a)"/></g><g transform="translate(0.006 46.638)"><path d="M340.791,420.573c7.042,0,14.154-.034,21.032-.067,22.844-.109,44.423-.209,66.206.791,11.711.54,22.337,1.349,32.485,2.475,11.368,1.261,21.873,2.887,32.115,4.97,12.532,2.548,25.15,5.456,37.35,8.267,17.689,4.076,35.98,8.291,53.752,11.329,9.551,1.633,18.233,2.813,26.542,3.608a247.062,247.062,0,0,0,26.345,1.191c15.579-.167,32.533-1.9,51.833-5.3,17.208-3.032,34.606-7.07,51.431-10.975,11.866-2.757,24.136-5.6,36.178-8.057,9.987-2.036,20.169-3.632,31.129-4.879,9.764-1.111,19.928-1.918,31.073-2.466,20.7-1.018,41.752-.964,62.112-.912,4.536.012,9.228.024,13.846.024h326.1q0,.713.008,1.424H914.223c-4.62,0-9.312-.012-13.85-.024-20.349-.052-41.381-.106-62.049.911-11.118.547-21.257,1.351-30.995,2.459-10.923,1.243-21.072,2.833-31.023,4.862-12.025,2.45-24.287,5.3-36.145,8.05-16.845,3.909-34.26,7.951-51.5,10.988-19.366,3.411-36.386,5.15-52.032,5.317-.791.013-1.581.013-2.375.013-7.709,0-15.62-.4-24.1-1.207-8.339-.8-17.05-1.982-26.632-3.62-17.806-3.043-36.115-7.263-53.821-11.343-12.194-2.81-24.8-5.716-37.319-8.261-10.206-2.076-20.675-3.7-32.006-4.953-10.122-1.124-20.722-1.931-32.407-2.469-21.752-1-43.316-.9-66.144-.789-6.879.033-13.993.067-21.038.067H2.407v-1.424Z" transform="translate(-2.407 -420.44)" fill="url(#a)"/></g><g transform="translate(0.005 62.044)"><path d="M340.674,436.076c9.7,0,19.472-.059,28.922-.116,21.436-.129,41.683-.25,62.146.239,23.193.554,42.487,1.8,60.72,3.922,9.707,1.13,19.5,2.331,28.977,3.493,19.1,2.337,38.849,4.759,58.021,6.6,21.438,2.058,40.1,3.18,57.057,3.428a462.366,462.366,0,0,0,51.865-2.469c17.213-1.685,34.614-4.049,51.442-6.336,11.864-1.612,24.132-3.284,36.171-4.684,17.327-2.022,36.242-3.275,57.827-3.832,19.248-.5,38.82-.406,57.748-.319,7.383.034,15.017.069,22.534.069h326.209c.005.475.012.949.017,1.424H914.1c-7.52,0-15.156-.035-22.54-.069-18.918-.087-38.482-.181-57.711.319-21.549.556-40.428,1.807-57.718,3.824-12.027,1.4-24.289,3.069-36.148,4.681-16.839,2.288-34.258,4.655-51.487,6.341S655.9,455.1,641.7,455.1q-2.631,0-5.21-.034c-16.989-.248-35.686-1.371-57.156-3.433-19.187-1.843-38.945-4.266-58.052-6.609-9.469-1.162-19.27-2.363-28.969-3.492-18.2-2.114-37.453-3.36-60.608-3.914-20.445-.488-40.683-.367-62.109-.238-9.451.057-19.228.116-28.928.116H2.29v-1.424Z" transform="translate(-2.29 -435.846)" fill="url(#a)"/></g><g transform="translate(0.004 77.419)"><path d="M340.489,451.568c13.977,0,28-.089,41.56-.175,13.723-.087,27.168-.173,40.44-.173,23.629,0,46.7.271,69.744,1.287,50.448,2.225,99.074,3.581,144.106,4.715q9.042.221,18.083.22c28.745,0,57.4-1.559,85.261-3.075,11.865-.646,24.133-1.313,36.171-1.846,22.32-.988,44.828-1.241,67.093-1.241,11.862,0,23.66.072,35.313.143,11.681.071,23.76.145,35.66.145h326.387c.007.475.017.949.024,1.424H913.919c-11.9,0-23.985-.074-35.667-.145-33.512-.2-68.165-.413-102.346,1.1-12.031.532-24.3,1.2-36.158,1.845-27.883,1.517-56.545,3.077-85.324,3.077q-9.06.008-18.116-.224c-45.039-1.134-93.671-2.49-144.129-4.715-35.958-1.585-71.984-1.356-110.123-1.113-13.567.086-27.586.175-41.567.175H2.1v-1.424Z" transform="translate(-2.105 -451.22)" fill="url(#a)"/></g><g transform="translate(0.005 93.158)"><path d="M340.236,467.067c20.246,0,40.438-.028,59.967-.055,19.571-.027,38.467-.053,57.138-.053,11.59,0,23.1.01,34.613.036,20.177.045,40.386.038,59.929.031,7.347-.005,14.588-.005,21.762-.005,21.154,0,41.693.022,62.427.131q19.665.1,39.23.1c21.621,0,43.09-.073,64.11-.144,11.879-.04,24.162-.082,36.213-.109,28.341-.064,57.061-.022,84.841.019,17.423.025,35.439.052,53.2.052h326.641c.008.475.014.949.023,1.424H913.668c-17.761,0-35.759-.026-53.2-.052s-35.247-.052-53.1-.052c-10.587,0-21.192.009-31.74.033-12.05.027-24.333.069-36.212.109-21.015.071-42.474.144-64.09.144-13.051,0-26.161-.027-39.261-.1-27.762-.146-55.169-.136-84.183-.126-19.543.007-39.752.015-59.932-.031-30.069-.068-60.028-.027-91.747.017-19.528.027-39.721.055-59.968.055H1.852v-1.424Z" transform="translate(-1.852 -466.959)" fill="url(#a)"/></g><g transform="translate(0.004 108.769)"><path d="M1.542,482.57H1240.3q.015.713.029,1.424H1.542Z" transform="translate(-1.542 -482.57)" fill="url(#a)"/></g><g transform="translate(0.004 124.269)"><path d="M1.19,498.07H1240.3q.016.713.034,1.424H1.19Z" transform="translate(-1.19 -498.07)" fill="url(#a)"/></g><g transform="translate(0.004 139.768)"><path d="M.8,513.569h1239.49q.019.713.038,1.424H.8Z" transform="translate(-0.803 -513.569)" fill="url(#a)"/></g><g transform="translate(0.004 86.47)"><path d="M1.963,460.271H1240.308q.01.713.023,1.424H1.963Z" transform="translate(-1.963 -460.271)" fill="url(#a)"/></g><g transform="translate(0.004 91.269)"><path d="M1.885,465.07H1240.308q.012.713.023,1.424H1.885Z" transform="translate(-1.885 -465.07)" fill="url(#a)"/></g><g transform="translate(0.004 96.069)"><path d="M1.8,469.87H1240.3c.008.475.019.949.027,1.424H1.8Z" transform="translate(-1.802 -469.87)" fill="url(#a)"/></g><g transform="translate(0.004 100.868)"><path d="M1.7,474.669H1240.3l.03,1.424H1.7Z" transform="translate(-1.703 -474.669)" fill="url(#a)"/></g><g transform="translate(0.004 105.668)"><path d="M1.6,479.469H1240.3q.014.713.029,1.424H1.6Z" transform="translate(-1.605 -479.469)" fill="url(#a)"/></g><g transform="translate(0.004 115.266)"><path d="M1.4,489.067H1240.3c.011.475.024.949.034,1.424H1.4Z" transform="translate(-1.404 -489.067)" fill="url(#a)"/></g><g transform="translate(0.004 120.066)"><path d="M1.29,493.867H1240.3q.016.713.034,1.424H1.29Z" transform="translate(-1.29 -493.867)" fill="url(#a)"/></g><g transform="translate(0.004 124.865)"><path d="M1.176,498.666H1240.3q.018.713.034,1.424H1.176Z" transform="translate(-1.176 -498.666)" fill="url(#a)"/></g><g transform="translate(0.004 129.664)"><path d="M1.062,503.465H1240.3c.012.475.022.949.034,1.424H1.062Z" transform="translate(-1.062 -503.465)" fill="url(#a)"/></g><g transform="translate(0.004 134.464)"><path d="M.943,508.265H1240.294q.018.712.037,1.424H.943Z" transform="translate(-0.943 -508.265)" fill="url(#a)"/></g><g transform="translate(0.004 139.263)"><path d="M.817,513.064H1240.294q.018.712.037,1.424H.817Z" transform="translate(-0.817 -513.064)" fill="url(#a)"/></g><g transform="translate(0.004 95.721)"><path d="M1.809,469.522h1238.5q.013.713.026,1.424H1.809Z" transform="translate(-1.809 -469.522)" fill="url(#a)"/></g><g transform="translate(0.004 111.221)"><path d="M1.492,485.022H1240.3q.015.713.029,1.424H1.492Z" transform="translate(-1.492 -485.022)" fill="url(#a)"/></g><g transform="translate(0.004 126.72)"><path d="M1.132,500.521H1240.3q.018.713.034,1.424H1.132Z" transform="translate(-1.132 -500.521)" fill="url(#a)"/></g><g transform="translate(0.006 148.589)"><path d="M338.7,531.522c13.861,0,27.767.133,41.215.262,13.6.13,26.938.258,40.1.258,23.848,0,47.121-.42,70.358-2.005,42.522-2.9,86.975-5.16,144.136-7.322q8.875-.326,17.749-.325c28.912,0,57.716,2.42,85.722,4.774,11.859,1,24.123,2.028,36.151,2.852,34.291,2.348,69.06,2.03,102.683,1.722,11.568-.107,23.528-.216,35.315-.216h328.156q.019.713.04,1.424H912.13c-11.777,0-23.735.109-35.3.215-33.646.308-68.439.627-102.777-1.725-12.037-.825-24.3-1.853-36.169-2.853-33.7-2.832-68.547-5.761-103.324-4.446-57.149,2.162-101.59,4.42-144.1,7.32-23.275,1.588-46.567,2.008-70.441,2.008-13.164,0-26.508-.128-40.117-.257-13.442-.129-27.345-.262-41.2-.262H.32v-1.424Z" transform="translate(-0.32 -522.39)" fill="url(#a)"/></g><g transform="translate(0 146.319)"><path d="M338.267,547.021c9.629,0,19.324.087,28.7.171,21.465.192,41.74.374,62.219-.375,11-.4,20.987-1.041,30.524-1.941,10.678-1.012,20.546-2.334,30.169-4.041,9.842-1.746,19.776-3.608,29.381-5.408,19.04-3.57,38.728-7.261,57.851-10.061a461.3,461.3,0,0,1,56.979-5.193c15.647-.332,32.667.912,52.035,3.805,17.244,2.575,34.658,6.18,51.5,9.667,11.858,2.456,24.12,4.994,36.145,7.134a424.681,424.681,0,0,0,57.815,5.845c19.265.763,38.868.629,57.826.5,7.3-.048,14.854-.1,22.291-.1h328.592q.019.713.041,1.424H911.7c-7.433,0-14.983.05-22.283.1-18.973.127-38.59.261-57.883-.5a425.827,425.827,0,0,1-57.98-5.864c-12.042-2.14-24.313-4.683-36.179-7.14-16.83-3.484-34.223-7.086-51.43-9.656-19.3-2.883-36.252-4.124-51.829-3.792a460.207,460.207,0,0,0-56.828,5.181c-19.1,2.8-38.772,6.485-57.8,10.052-9.609,1.8-19.545,3.664-29.392,5.411-9.655,1.713-19.556,3.039-30.267,4.054-9.561.906-19.568,1.546-30.595,1.946-11.363.415-22.657.545-34.125.545-9.23,0-18.572-.084-28.151-.169-9.373-.084-19.066-.171-28.686-.171H-.117v-1.424Z" transform="translate(0.117 -520.121)" fill="url(#a)"/></g><g transform="translate(0.007 139.319)"><path d="M337.819,562.517c7,0,14.074.051,20.912.1,7.027.051,13.931.1,20.76.1,15.376,0,30.362-.248,45.434-1.3,11.689-.817,22.293-2.044,32.418-3.744a246.332,246.332,0,0,0,32.012-7.508c12.54-3.864,25.175-8.281,37.394-12.552,17.694-6.185,35.994-12.581,53.794-17.194a246.254,246.254,0,0,1,26.633-5.484,163.932,163.932,0,0,1,26.486-1.8,180.808,180.808,0,0,1,26.122,2.426,264.4,264.4,0,0,1,25.958,5.659c17.247,4.606,34.665,10.73,51.509,16.652,11.856,4.169,24.117,8.479,36.139,12.193a245.258,245.258,0,0,0,31.037,7.371c9.743,1.681,19.887,2.9,31.012,3.731,20.685,1.543,41.742,1.464,62.108,1.386,4.488-.016,9.13-.034,13.7-.034h329.039q.021.713.042,1.424H911.25c-4.57,0-9.212.017-13.7.034-20.385.079-41.468.157-62.2-1.389-11.164-.833-21.348-2.058-31.13-3.745a246.579,246.579,0,0,1-31.19-7.408c-12.045-3.72-24.317-8.035-36.185-12.208-16.822-5.915-34.217-12.03-51.417-16.624a262.872,262.872,0,0,0-25.838-5.634,179.533,179.533,0,0,0-25.947-2.41,162.79,162.79,0,0,0-26.292,1.786,245.305,245.305,0,0,0-26.5,5.457c-17.754,4.6-36.028,10.988-53.7,17.165-12.229,4.275-24.874,8.7-37.438,12.567a247.539,247.539,0,0,1-32.17,7.545c-10.164,1.71-20.807,2.939-32.537,3.758-15.108,1.055-30.117,1.305-45.517,1.305-6.832,0-13.741-.045-20.773-.1-6.833-.05-13.9-.1-20.9-.1H-.565v-1.424Z" transform="translate(0.565 -513.121)" fill="url(#a)"/></g><g transform="translate(0.003 132.585)"><path d="M337.369,578.008c5.772,0,11.607.037,17.251.074,23.5.152,45.69.3,68.054-1.979a249.751,249.751,0,0,0,33.3-5.523,194.519,194.519,0,0,0,32.867-10.955c13.164-5.753,26.424-12.508,39.247-19.041,17.387-8.855,35.365-18.014,52.865-24.5a167.3,167.3,0,0,1,26.2-7.569,105.655,105.655,0,0,1,26.083-2.011,140.488,140.488,0,0,1,26.148,4.006,216.087,216.087,0,0,1,25.973,8.263c17.252,6.6,34.672,15.212,51.519,23.537,11.855,5.858,24.114,11.916,36.133,17.18A195.1,195.1,0,0,0,805.064,570.3a241.782,241.782,0,0,0,32.032,5.519c18.221,1.967,36.727,2.219,54.832,2.219q4.7,0,9.349-.015c3.124-.007,6.347-.015,9.524-.015H1240.29q.021.712.042,1.424H910.8c-3.174,0-6.4.007-9.521.015q-4.648.015-9.349.015c-18.137,0-36.684-.253-54.964-2.226a243.042,243.042,0,0,1-32.193-5.548,196.314,196.314,0,0,1-32.258-10.883c-12.046-5.271-24.318-11.335-36.186-17.2-16.821-8.313-34.211-16.908-51.411-23.49a214.857,214.857,0,0,0-25.824-8.217,139.336,139.336,0,0,0-25.922-3.972,104.458,104.458,0,0,0-25.784,1.99,166.1,166.1,0,0,0-26.008,7.515c-17.43,6.46-35.375,15.6-52.73,24.444-12.84,6.542-26.116,13.306-39.316,19.073a195.806,195.806,0,0,1-33.074,11.025,250.952,250.952,0,0,1-33.46,5.551c-16.883,1.717-33.647,2.061-50.947,2.061-5.681,0-11.416-.034-17.238-.083-5.643-.036-11.474-.074-17.243-.074H-1.015v-1.424Z" transform="translate(1.015 -506.386)" fill="url(#a)"/></g><g transform="translate(0.004 131.298)"><path d="M336.927,593.532c5.843,0,11.748.053,17.459.1,23.455.194,45.61.372,67.933-2.428a206.008,206.008,0,0,0,33.23-6.81,169.734,169.734,0,0,0,32.8-13.515c13.133-7.094,26.362-15.414,39.156-23.46,17.4-10.945,35.4-22.262,52.916-30.285a144.552,144.552,0,0,1,26.24-9.376,86.611,86.611,0,0,1,26.138-2.523,115.35,115.35,0,0,1,26.173,4.92,186.8,186.8,0,0,1,25.984,10.2c17.255,8.155,34.677,18.8,51.524,29.1,11.856,7.245,24.114,14.738,36.133,21.245a170.424,170.424,0,0,0,31.98,13.337,199.749,199.749,0,0,0,31.956,6.8c18.1,2.413,36.48,2.729,54.47,2.729q4.812,0,9.575-.02c3.2-.011,6.508-.021,9.764-.021h329.933q.02.712.04,1.424H910.359c-3.254,0-6.56.011-9.76.021-21.043.067-42.81.134-64.21-2.72a200.921,200.921,0,0,1-32.15-6.846,171.629,171.629,0,0,1-32.214-13.435c-12.048-6.523-24.321-14.025-36.191-21.279-16.815-10.28-34.206-20.91-51.4-29.04a185.662,185.662,0,0,0-25.811-10.138,114.145,114.145,0,0,0-25.9-4.87,85.4,85.4,0,0,0-25.773,2.492,143.27,143.27,0,0,0-26.014,9.3c-17.441,7.983-35.4,19.278-52.768,30.2-12.812,8.054-26.06,16.386-39.23,23.5A170.929,170.929,0,0,1,455.9,585.748,207.193,207.193,0,0,1,422.47,592.6c-16.789,2.108-33.459,2.534-50.651,2.534-5.748,0-11.556-.048-17.443-.078-5.709-.051-11.611-.1-17.449-.1H-1.457v-1.424Z" transform="translate(1.457 -505.1)" fill="url(#a)"/></g><g transform="translate(0.007 139.967)"><path d="M336.509,608.658c7.165,0,14.4.107,21.4.207,22.751.33,44.239.64,65.9-2.26a182.115,182.115,0,0,0,32.25-7.161A155.24,155.24,0,0,0,487.9,585.059c12.432-7.383,24.962-15.787,37.078-23.915,17.752-11.909,36.109-24.223,53.973-33.132a152.225,152.225,0,0,1,26.753-10.629,90.138,90.138,0,0,1,24.557-3.615q1.048,0,2.09.028a96.524,96.524,0,0,1,26.2,4.577,161.521,161.521,0,0,1,26,10.876c17.258,8.866,34.681,20.684,51.53,32.112,11.855,8.041,24.112,16.355,36.13,23.508a155.181,155.181,0,0,0,30.852,14.114,176.008,176.008,0,0,0,30.827,7.132c20.57,2.946,41.523,2.78,61.787,2.618,4.671-.037,9.5-.076,14.256-.076h330.351q.02.713.039,1.424H909.939c-4.746,0-9.578.039-14.246.076-20.309.162-41.309.329-61.97-2.63a177.2,177.2,0,0,1-31.041-7.182,156.469,156.469,0,0,1-31.1-14.228c-12.05-7.172-24.324-15.5-36.2-23.549-16.821-11.406-34.21-23.2-51.4-32.032a160.227,160.227,0,0,0-25.8-10.793,95.327,95.327,0,0,0-25.869-4.523,87.5,87.5,0,0,0-26.283,3.541A151.04,151.04,0,0,0,579.5,529.3c-17.789,8.871-36.111,21.162-53.83,33.048-12.131,8.138-24.675,16.553-37.138,23.953a156.507,156.507,0,0,1-32.1,14.5,183.348,183.348,0,0,1-32.466,7.21,296.361,296.361,0,0,1-32.839,2.35c-4.036.09-8.114.124-12.2.124-7.048,0-14.117-.1-21.035-.2-6.994-.1-14.226-.207-21.387-.207H-1.874v-1.424Z" transform="translate(1.874 -513.768)" fill="url(#a)"/></g></svg>