<svg width="416" height="277" viewBox="0 0 416 277" fill="none" xmlns="http://www.w3.org/2000/svg">
<rect x="39.1421" y="50.7715" width="257.501" height="174.285" stroke="#C6C6C6" stroke-width="2" stroke-linejoin="round" stroke-dasharray="3 3"/>
<rect x="77.5598" y="0.5" width="268.26" height="202.564" fill="#F1F1F1"/>
<rect x="84.1294" y="30.0635" width="255.121" height="168.621" fill="white"/>
<rect x="104.933" y="51.9629" width="211.323" height="122.633" rx="8" fill="#F1F1F1"/>
<rect x="321.731" y="13.6387" width="16.4241" height="4.37976" rx="2.18988" fill="#C4C4C4"/>
<rect x="201.288" y="130.798" width="47.0824" height="4.37976" rx="2.18988" fill="white"/>
<rect x="116.978" y="72.7656" width="47.0824" height="4.37976" rx="2.18988" fill="white"/>
<rect x="258.225" y="130.798" width="47.0824" height="4.37976" rx="2.18988" fill="white"/>
<rect x="201.288" y="138.463" width="47.0824" height="4.37976" rx="2.18988" fill="white"/>
<rect x="116.978" y="80.4297" width="47.0824" height="4.37976" rx="2.18988" fill="white"/>
<rect x="258.225" y="138.463" width="47.0824" height="4.37976" rx="2.18988" fill="white"/>
<rect x="201.288" y="146.127" width="26.2786" height="4.37976" rx="2.18988" fill="white"/>
<rect x="116.978" y="88.0957" width="26.2786" height="4.37976" rx="2.18988" fill="white"/>
<rect x="258.225" y="146.127" width="26.2786" height="4.37976" rx="2.18988" fill="white"/>
<circle cx="86.8667" cy="15.2813" r="2.73735" fill="#C4C4C4"/>
<circle cx="94.5314" cy="15.2813" r="2.73735" fill="#C4C4C4"/>
<circle cx="102.196" cy="15.2813" r="2.73735" fill="#C4C4C4"/>
<g filter="url(#filter0_d_660_6252)">
<rect x="16.2432" y="111.089" width="167.526" height="134.678" rx="15" fill="white"/>
</g>
<rect x="33.7622" y="141.747" width="130.298" height="19.7089" rx="4" fill="#EEEEEE"/>
<rect x="33.7622" y="183.355" width="130.298" height="19.7089" rx="4" fill="#EEEEEE"/>
<rect x="33.5" y="214.014" width="41.6077" height="19.7089" rx="4" fill="#3E59B7"/>
<path d="M34.5602 133.323V128.423H36.3942C36.8095 128.423 37.1665 128.491 37.4652 128.626C37.7639 128.757 37.9925 128.948 38.1512 129.2C38.3145 129.448 38.3962 129.749 38.3962 130.103C38.3962 130.449 38.3145 130.747 38.1512 130.999C37.9925 131.247 37.7639 131.438 37.4652 131.573C37.1665 131.709 36.8095 131.776 36.3942 131.776H34.8472L35.0782 131.531V133.323H34.5602ZM35.0782 131.573L34.8472 131.321H36.3802C36.8702 131.321 37.2412 131.216 37.4932 131.006C37.7499 130.792 37.8782 130.491 37.8782 130.103C37.8782 129.711 37.7499 129.408 37.4932 129.193C37.2412 128.979 36.8702 128.871 36.3802 128.871H34.8472L35.0782 128.626V131.573ZM41.6801 133.323V132.511L41.6591 132.378V131.02C41.6591 130.708 41.5704 130.467 41.3931 130.299C41.2204 130.131 40.9614 130.047 40.6161 130.047C40.3781 130.047 40.1517 130.087 39.9371 130.166C39.7224 130.246 39.5404 130.351 39.3911 130.481L39.1671 130.11C39.3537 129.952 39.5777 129.83 39.8391 129.746C40.1004 129.658 40.3757 129.613 40.6651 129.613C41.1411 129.613 41.5074 129.732 41.7641 129.97C42.0254 130.204 42.1561 130.561 42.1561 131.041V133.323H41.6801ZM40.4131 133.358C40.1377 133.358 39.8974 133.314 39.6921 133.225C39.4914 133.132 39.3374 133.006 39.2301 132.847C39.1227 132.684 39.0691 132.497 39.0691 132.287C39.0691 132.096 39.1134 131.923 39.2021 131.769C39.2954 131.611 39.4447 131.485 39.6501 131.391C39.8601 131.293 40.1401 131.244 40.4901 131.244H41.7571V131.615H40.5041C40.1494 131.615 39.9021 131.678 39.7621 131.804C39.6267 131.93 39.5591 132.087 39.5591 132.273C39.5591 132.483 39.6407 132.651 39.8041 132.777C39.9674 132.903 40.1961 132.966 40.4901 132.966C40.7701 132.966 41.0104 132.903 41.2111 132.777C41.4164 132.647 41.5657 132.46 41.6591 132.217L41.7711 132.56C41.6777 132.803 41.5144 132.997 41.2811 133.141C41.0524 133.286 40.7631 133.358 40.4131 133.358ZM44.493 133.358C44.1897 133.358 43.9027 133.316 43.632 133.232C43.3613 133.144 43.149 133.034 42.995 132.903L43.219 132.511C43.3683 132.623 43.5597 132.721 43.793 132.805C44.0263 132.885 44.2713 132.924 44.528 132.924C44.878 132.924 45.13 132.871 45.284 132.763C45.438 132.651 45.515 132.504 45.515 132.322C45.515 132.187 45.4707 132.082 45.382 132.007C45.298 131.928 45.186 131.87 45.046 131.832C44.906 131.79 44.7497 131.755 44.577 131.727C44.4043 131.699 44.2317 131.667 44.059 131.629C43.891 131.592 43.737 131.538 43.597 131.468C43.457 131.394 43.3427 131.293 43.254 131.167C43.17 131.041 43.128 130.873 43.128 130.663C43.128 130.463 43.184 130.283 43.296 130.124C43.408 129.966 43.5713 129.842 43.786 129.753C44.0053 129.66 44.2713 129.613 44.584 129.613C44.822 129.613 45.06 129.646 45.298 129.711C45.536 129.772 45.732 129.854 45.886 129.956L45.669 130.355C45.5057 130.243 45.3307 130.164 45.144 130.117C44.9573 130.066 44.7707 130.04 44.584 130.04C44.2527 130.04 44.0077 130.099 43.849 130.215C43.695 130.327 43.618 130.472 43.618 130.649C43.618 130.789 43.66 130.899 43.744 130.978C43.8327 131.058 43.947 131.121 44.087 131.167C44.2317 131.209 44.388 131.244 44.556 131.272C44.7287 131.3 44.899 131.335 45.067 131.377C45.2397 131.415 45.396 131.468 45.536 131.538C45.6807 131.604 45.795 131.699 45.879 131.825C45.9677 131.947 46.012 132.108 46.012 132.308C46.012 132.523 45.9513 132.71 45.83 132.868C45.7133 133.022 45.5407 133.144 45.312 133.232C45.088 133.316 44.815 133.358 44.493 133.358ZM47.911 133.358C47.6076 133.358 47.3206 133.316 47.05 133.232C46.7793 133.144 46.567 133.034 46.413 132.903L46.637 132.511C46.7863 132.623 46.9776 132.721 47.211 132.805C47.4443 132.885 47.6893 132.924 47.946 132.924C48.296 132.924 48.548 132.871 48.702 132.763C48.856 132.651 48.933 132.504 48.933 132.322C48.933 132.187 48.8886 132.082 48.8 132.007C48.716 131.928 48.604 131.87 48.464 131.832C48.324 131.79 48.1676 131.755 47.995 131.727C47.8223 131.699 47.6496 131.667 47.477 131.629C47.309 131.592 47.155 131.538 47.015 131.468C46.875 131.394 46.7606 131.293 46.672 131.167C46.588 131.041 46.546 130.873 46.546 130.663C46.546 130.463 46.602 130.283 46.714 130.124C46.826 129.966 46.9893 129.842 47.204 129.753C47.4233 129.66 47.6893 129.613 48.002 129.613C48.24 129.613 48.478 129.646 48.716 129.711C48.954 129.772 49.15 129.854 49.304 129.956L49.087 130.355C48.9236 130.243 48.7486 130.164 48.562 130.117C48.3753 130.066 48.1886 130.04 48.002 130.04C47.6706 130.04 47.4256 130.099 47.267 130.215C47.113 130.327 47.036 130.472 47.036 130.649C47.036 130.789 47.078 130.899 47.162 130.978C47.2506 131.058 47.365 131.121 47.505 131.167C47.6496 131.209 47.806 131.244 47.974 131.272C48.1466 131.3 48.317 131.335 48.485 131.377C48.6576 131.415 48.814 131.468 48.954 131.538C49.0986 131.604 49.213 131.699 49.297 131.825C49.3856 131.947 49.43 132.108 49.43 132.308C49.43 132.523 49.3693 132.71 49.248 132.868C49.1313 133.022 48.9586 133.144 48.73 133.232C48.506 133.316 48.233 133.358 47.911 133.358ZM51.0226 133.323L49.6366 129.648H50.1126L51.3726 133.057H51.1556L52.4506 129.648H52.8776L54.1586 133.057H53.9416L55.2226 129.648H55.6776L54.2846 133.323H53.8156L52.5836 130.117H52.7306L51.4916 133.323H51.0226ZM57.8214 133.358C57.4667 133.358 57.147 133.279 56.8624 133.12C56.5824 132.957 56.3607 132.735 56.1974 132.455C56.034 132.171 55.9524 131.846 55.9524 131.482C55.9524 131.114 56.034 130.789 56.1974 130.509C56.3607 130.229 56.5824 130.01 56.8624 129.851C57.1424 129.693 57.462 129.613 57.8214 129.613C58.1854 129.613 58.5074 129.693 58.7874 129.851C59.072 130.01 59.2937 130.229 59.4524 130.509C59.6157 130.789 59.6974 131.114 59.6974 131.482C59.6974 131.846 59.6157 132.171 59.4524 132.455C59.2937 132.735 59.072 132.957 58.7874 133.12C58.5027 133.279 58.1807 133.358 57.8214 133.358ZM57.8214 132.917C58.0874 132.917 58.323 132.859 58.5284 132.742C58.7337 132.621 58.8947 132.453 59.0114 132.238C59.1327 132.019 59.1934 131.767 59.1934 131.482C59.1934 131.193 59.1327 130.941 59.0114 130.726C58.8947 130.512 58.7337 130.346 58.5284 130.229C58.323 130.108 58.0897 130.047 57.8284 130.047C57.567 130.047 57.3337 130.108 57.1284 130.229C56.923 130.346 56.7597 130.512 56.6384 130.726C56.517 130.941 56.4564 131.193 56.4564 131.482C56.4564 131.767 56.517 132.019 56.6384 132.238C56.7597 132.453 56.923 132.621 57.1284 132.742C57.3337 132.859 57.5647 132.917 57.8214 132.917ZM60.712 133.323V129.648H61.188V130.649L61.139 130.474C61.2417 130.194 61.4144 129.982 61.657 129.837C61.8997 129.688 62.2007 129.613 62.56 129.613V130.096C62.5414 130.096 62.5227 130.096 62.504 130.096C62.4854 130.092 62.4667 130.089 62.448 130.089C62.0607 130.089 61.7574 130.208 61.538 130.446C61.3187 130.68 61.209 131.013 61.209 131.447V133.323H60.712ZM64.8957 133.358C64.5457 133.358 64.2307 133.279 63.9507 133.12C63.6754 132.962 63.4584 132.742 63.2997 132.462C63.1411 132.178 63.0617 131.851 63.0617 131.482C63.0617 131.109 63.1411 130.782 63.2997 130.502C63.4584 130.222 63.6754 130.005 63.9507 129.851C64.2307 129.693 64.5457 129.613 64.8957 129.613C65.2177 129.613 65.5047 129.686 65.7567 129.83C66.0134 129.975 66.2164 130.187 66.3657 130.467C66.5197 130.743 66.5967 131.081 66.5967 131.482C66.5967 131.879 66.5221 132.217 66.3727 132.497C66.2234 132.777 66.0204 132.992 65.7637 133.141C65.5117 133.286 65.2224 133.358 64.8957 133.358ZM64.9307 132.917C65.1921 132.917 65.4254 132.859 65.6307 132.742C65.8407 132.621 66.0041 132.453 66.1207 132.238C66.2421 132.019 66.3027 131.767 66.3027 131.482C66.3027 131.193 66.2421 130.941 66.1207 130.726C66.0041 130.512 65.8407 130.346 65.6307 130.229C65.4254 130.108 65.1921 130.047 64.9307 130.047C64.6741 130.047 64.4431 130.108 64.2377 130.229C64.0324 130.346 63.8691 130.512 63.7477 130.726C63.6264 130.941 63.5657 131.193 63.5657 131.482C63.5657 131.767 63.6264 132.019 63.7477 132.238C63.8691 132.453 64.0324 132.621 64.2377 132.742C64.4431 132.859 64.6741 132.917 64.9307 132.917ZM66.3167 133.323V132.217L66.3657 131.475L66.2957 130.733V128.129H66.7927V133.323H66.3167Z" fill="#565656"/>
<path d="M36.426 174.675C36.0573 174.675 35.7167 174.614 35.404 174.493C35.0913 174.367 34.8207 174.192 34.592 173.968C34.3633 173.744 34.1837 173.48 34.053 173.177C33.927 172.873 33.864 172.542 33.864 172.183C33.864 171.823 33.927 171.492 34.053 171.189C34.1837 170.885 34.3633 170.622 34.592 170.398C34.8253 170.174 35.0983 170.001 35.411 169.88C35.7237 169.754 36.0643 169.691 36.433 169.691C36.7877 169.691 37.1213 169.751 37.434 169.873C37.7467 169.989 38.0103 170.167 38.225 170.405L37.896 170.734C37.6953 170.528 37.4737 170.381 37.231 170.293C36.9883 170.199 36.727 170.153 36.447 170.153C36.153 170.153 35.88 170.204 35.628 170.307C35.376 170.405 35.1567 170.547 34.97 170.734C34.7833 170.916 34.6363 171.13 34.529 171.378C34.4263 171.62 34.375 171.889 34.375 172.183C34.375 172.477 34.4263 172.747 34.529 172.995C34.6363 173.237 34.7833 173.452 34.97 173.639C35.1567 173.821 35.376 173.963 35.628 174.066C35.88 174.164 36.153 174.213 36.447 174.213C36.727 174.213 36.9883 174.166 37.231 174.073C37.4737 173.979 37.6953 173.83 37.896 173.625L38.225 173.954C38.0103 174.192 37.7467 174.371 37.434 174.493C37.1213 174.614 36.7853 174.675 36.426 174.675ZM40.5582 174.668C40.2035 174.668 39.8839 174.588 39.5992 174.43C39.3192 174.266 39.0975 174.045 38.9342 173.765C38.7709 173.48 38.6892 173.156 38.6892 172.792C38.6892 172.423 38.7709 172.099 38.9342 171.819C39.0975 171.539 39.3192 171.319 39.5992 171.161C39.8792 171.002 40.1989 170.923 40.5582 170.923C40.9222 170.923 41.2442 171.002 41.5242 171.161C41.8089 171.319 42.0305 171.539 42.1892 171.819C42.3525 172.099 42.4342 172.423 42.4342 172.792C42.4342 173.156 42.3525 173.48 42.1892 173.765C42.0305 174.045 41.8089 174.266 41.5242 174.43C41.2395 174.588 40.9175 174.668 40.5582 174.668ZM40.5582 174.227C40.8242 174.227 41.0599 174.168 41.2652 174.052C41.4705 173.93 41.6315 173.762 41.7482 173.548C41.8695 173.328 41.9302 173.076 41.9302 172.792C41.9302 172.502 41.8695 172.25 41.7482 172.036C41.6315 171.821 41.4705 171.655 41.2652 171.539C41.0599 171.417 40.8265 171.357 40.5652 171.357C40.3039 171.357 40.0705 171.417 39.8652 171.539C39.6599 171.655 39.4965 171.821 39.3752 172.036C39.2539 172.25 39.1932 172.502 39.1932 172.792C39.1932 173.076 39.2539 173.328 39.3752 173.548C39.4965 173.762 39.6599 173.93 39.8652 174.052C40.0705 174.168 40.3015 174.227 40.5582 174.227ZM45.3249 170.923C45.6235 170.923 45.8849 170.981 46.1089 171.098C46.3375 171.21 46.5149 171.382 46.6409 171.616C46.7715 171.849 46.8369 172.143 46.8369 172.498V174.633H46.3399V172.547C46.3399 172.159 46.2419 171.868 46.0459 171.672C45.8545 171.471 45.5839 171.371 45.2339 171.371C44.9725 171.371 44.7439 171.424 44.5479 171.532C44.3565 171.634 44.2072 171.786 44.0999 171.987C43.9972 172.183 43.9459 172.421 43.9459 172.701V174.633H43.4489V170.958H43.9249V171.966L43.8479 171.777C43.9645 171.511 44.1512 171.303 44.4079 171.154C44.6645 171 44.9702 170.923 45.3249 170.923ZM48.2633 174.633V170.496C48.2633 170.169 48.359 169.905 48.5503 169.705C48.7417 169.504 49.017 169.404 49.3763 169.404C49.5163 169.404 49.6517 169.422 49.7823 169.46C49.913 169.497 50.0227 169.555 50.1113 169.635L49.9433 170.006C49.8733 169.945 49.7917 169.901 49.6983 169.873C49.605 169.84 49.5047 169.824 49.3973 169.824C49.1873 169.824 49.0263 169.882 48.9143 169.999C48.8023 170.115 48.7463 170.288 48.7463 170.517V171.077L48.7603 171.308V174.633H48.2633ZM47.6053 171.371V170.958H49.8803V171.371H47.6053ZM50.5523 174.633V170.958H51.0493V174.633H50.5523ZM50.8043 170.146C50.7017 170.146 50.6153 170.111 50.5453 170.041C50.4753 169.971 50.4403 169.887 50.4403 169.789C50.4403 169.691 50.4753 169.609 50.5453 169.544C50.6153 169.474 50.7017 169.439 50.8043 169.439C50.907 169.439 50.9933 169.471 51.0633 169.537C51.1333 169.602 51.1683 169.684 51.1683 169.782C51.1683 169.884 51.1333 169.971 51.0633 170.041C50.998 170.111 50.9117 170.146 50.8043 170.146ZM52.445 174.633V170.958H52.921V171.959L52.872 171.784C52.9746 171.504 53.1473 171.291 53.39 171.147C53.6326 170.997 53.9336 170.923 54.293 170.923V171.406C54.2743 171.406 54.2556 171.406 54.237 171.406C54.2183 171.401 54.1996 171.399 54.181 171.399C53.7936 171.399 53.4903 171.518 53.271 171.756C53.0516 171.989 52.942 172.323 52.942 172.757V174.633H52.445ZM59.7918 170.923C60.0905 170.923 60.3495 170.981 60.5688 171.098C60.7928 171.21 60.9655 171.382 61.0868 171.616C61.2128 171.849 61.2758 172.143 61.2758 172.498V174.633H60.7788V172.547C60.7788 172.159 60.6855 171.868 60.4988 171.672C60.3168 171.471 60.0578 171.371 59.7218 171.371C59.4698 171.371 59.2505 171.424 59.0638 171.532C58.8818 171.634 58.7395 171.786 58.6368 171.987C58.5388 172.183 58.4898 172.421 58.4898 172.701V174.633H57.9928V172.547C57.9928 172.159 57.8995 171.868 57.7128 171.672C57.5262 171.471 57.2648 171.371 56.9288 171.371C56.6815 171.371 56.4645 171.424 56.2778 171.532C56.0912 171.634 55.9465 171.786 55.8438 171.987C55.7458 172.183 55.6968 172.421 55.6968 172.701V174.633H55.1998V170.958H55.6758V171.952L55.5988 171.777C55.7108 171.511 55.8905 171.303 56.1378 171.154C56.3898 171 56.6862 170.923 57.0268 170.923C57.3862 170.923 57.6918 171.014 57.9438 171.196C58.1958 171.373 58.3592 171.641 58.4338 172.001L58.2378 171.924C58.3452 171.625 58.5342 171.385 58.8048 171.203C59.0802 171.016 59.4092 170.923 59.7918 170.923ZM64.5607 174.633V169.733H66.3947C66.81 169.733 67.167 169.8 67.4657 169.936C67.7644 170.066 67.993 170.258 68.1517 170.51C68.315 170.757 68.3967 171.058 68.3967 171.413C68.3967 171.758 68.315 172.057 68.1517 172.309C67.993 172.556 67.7644 172.747 67.4657 172.883C67.167 173.018 66.81 173.086 66.3947 173.086H64.8477L65.0787 172.841V174.633H64.5607ZM65.0787 172.883L64.8477 172.631H66.3807C66.8707 172.631 67.2417 172.526 67.4937 172.316C67.7504 172.101 67.8787 171.8 67.8787 171.413C67.8787 171.021 67.7504 170.717 67.4937 170.503C67.2417 170.288 66.8707 170.181 66.3807 170.181H64.8477L65.0787 169.936V172.883ZM71.6806 174.633V173.821L71.6596 173.688V172.33C71.6596 172.017 71.5709 171.777 71.3936 171.609C71.2209 171.441 70.9619 171.357 70.6166 171.357C70.3786 171.357 70.1522 171.396 69.9376 171.476C69.7229 171.555 69.5409 171.66 69.3916 171.791L69.1676 171.42C69.3542 171.261 69.5782 171.14 69.8396 171.056C70.1009 170.967 70.3762 170.923 70.6656 170.923C71.1416 170.923 71.5079 171.042 71.7646 171.28C72.0259 171.513 72.1566 171.87 72.1566 172.351V174.633H71.6806ZM70.4136 174.668C70.1382 174.668 69.8979 174.623 69.6926 174.535C69.4919 174.441 69.3379 174.315 69.2306 174.157C69.1232 173.993 69.0696 173.807 69.0696 173.597C69.0696 173.405 69.1139 173.233 69.2026 173.079C69.2959 172.92 69.4452 172.794 69.6506 172.701C69.8606 172.603 70.1406 172.554 70.4906 172.554H71.7576V172.925H70.5046C70.1499 172.925 69.9026 172.988 69.7626 173.114C69.6272 173.24 69.5596 173.396 69.5596 173.583C69.5596 173.793 69.6412 173.961 69.8046 174.087C69.9679 174.213 70.1966 174.276 70.4906 174.276C70.7706 174.276 71.0109 174.213 71.2116 174.087C71.4169 173.956 71.5662 173.769 71.6596 173.527L71.7716 173.87C71.6782 174.112 71.5149 174.306 71.2816 174.451C71.0529 174.595 70.7636 174.668 70.4136 174.668ZM74.4935 174.668C74.1901 174.668 73.9031 174.626 73.6325 174.542C73.3618 174.453 73.1495 174.343 72.9955 174.213L73.2195 173.821C73.3688 173.933 73.5601 174.031 73.7935 174.115C74.0268 174.194 74.2718 174.234 74.5285 174.234C74.8785 174.234 75.1305 174.18 75.2845 174.073C75.4385 173.961 75.5155 173.814 75.5155 173.632C75.5155 173.496 75.4711 173.391 75.3825 173.317C75.2985 173.237 75.1865 173.179 75.0465 173.142C74.9065 173.1 74.7501 173.065 74.5775 173.037C74.4048 173.009 74.2321 172.976 74.0595 172.939C73.8915 172.901 73.7375 172.848 73.5975 172.778C73.4575 172.703 73.3431 172.603 73.2545 172.477C73.1705 172.351 73.1285 172.183 73.1285 171.973C73.1285 171.772 73.1845 171.592 73.2965 171.434C73.4085 171.275 73.5718 171.151 73.7865 171.063C74.0058 170.969 74.2718 170.923 74.5845 170.923C74.8225 170.923 75.0605 170.955 75.2985 171.021C75.5365 171.081 75.7325 171.163 75.8865 171.266L75.6695 171.665C75.5061 171.553 75.3311 171.473 75.1445 171.427C74.9578 171.375 74.7711 171.35 74.5845 171.35C74.2531 171.35 74.0081 171.408 73.8495 171.525C73.6955 171.637 73.6185 171.781 73.6185 171.959C73.6185 172.099 73.6605 172.208 73.7445 172.288C73.8331 172.367 73.9475 172.43 74.0875 172.477C74.2321 172.519 74.3885 172.554 74.5565 172.582C74.7291 172.61 74.8995 172.645 75.0675 172.687C75.2401 172.724 75.3965 172.778 75.5365 172.848C75.6811 172.913 75.7955 173.009 75.8795 173.135C75.9681 173.256 76.0125 173.417 76.0125 173.618C76.0125 173.832 75.9518 174.019 75.8305 174.178C75.7138 174.332 75.5411 174.453 75.3125 174.542C75.0885 174.626 74.8155 174.668 74.4935 174.668ZM77.9114 174.668C77.6081 174.668 77.3211 174.626 77.0504 174.542C76.7798 174.453 76.5674 174.343 76.4134 174.213L76.6374 173.821C76.7868 173.933 76.9781 174.031 77.2114 174.115C77.4448 174.194 77.6898 174.234 77.9464 174.234C78.2964 174.234 78.5484 174.18 78.7024 174.073C78.8564 173.961 78.9334 173.814 78.9334 173.632C78.9334 173.496 78.8891 173.391 78.8004 173.317C78.7164 173.237 78.6044 173.179 78.4644 173.142C78.3244 173.1 78.1681 173.065 77.9954 173.037C77.8228 173.009 77.6501 172.976 77.4774 172.939C77.3094 172.901 77.1554 172.848 77.0154 172.778C76.8754 172.703 76.7611 172.603 76.6724 172.477C76.5884 172.351 76.5464 172.183 76.5464 171.973C76.5464 171.772 76.6024 171.592 76.7144 171.434C76.8264 171.275 76.9898 171.151 77.2044 171.063C77.4238 170.969 77.6898 170.923 78.0024 170.923C78.2404 170.923 78.4784 170.955 78.7164 171.021C78.9544 171.081 79.1504 171.163 79.3044 171.266L79.0874 171.665C78.9241 171.553 78.7491 171.473 78.5624 171.427C78.3758 171.375 78.1891 171.35 78.0024 171.35C77.6711 171.35 77.4261 171.408 77.2674 171.525C77.1134 171.637 77.0364 171.781 77.0364 171.959C77.0364 172.099 77.0784 172.208 77.1624 172.288C77.2511 172.367 77.3654 172.43 77.5054 172.477C77.6501 172.519 77.8064 172.554 77.9744 172.582C78.1471 172.61 78.3174 172.645 78.4854 172.687C78.6581 172.724 78.8144 172.778 78.9544 172.848C79.0991 172.913 79.2134 173.009 79.2974 173.135C79.3861 173.256 79.4304 173.417 79.4304 173.618C79.4304 173.832 79.3698 174.019 79.2484 174.178C79.1318 174.332 78.9591 174.453 78.7304 174.542C78.5064 174.626 78.2334 174.668 77.9114 174.668ZM81.0231 174.633L79.6371 170.958H80.1131L81.3731 174.367H81.1561L82.4511 170.958H82.8781L84.1591 174.367H83.9421L85.2231 170.958H85.6781L84.2851 174.633H83.8161L82.5841 171.427H82.7311L81.4921 174.633H81.0231ZM87.8219 174.668C87.4672 174.668 87.1475 174.588 86.8629 174.43C86.5829 174.266 86.3612 174.045 86.1979 173.765C86.0345 173.48 85.9529 173.156 85.9529 172.792C85.9529 172.423 86.0345 172.099 86.1979 171.819C86.3612 171.539 86.5829 171.319 86.8629 171.161C87.1429 171.002 87.4625 170.923 87.8219 170.923C88.1859 170.923 88.5079 171.002 88.7879 171.161C89.0725 171.319 89.2942 171.539 89.4529 171.819C89.6162 172.099 89.6979 172.423 89.6979 172.792C89.6979 173.156 89.6162 173.48 89.4529 173.765C89.2942 174.045 89.0725 174.266 88.7879 174.43C88.5032 174.588 88.1812 174.668 87.8219 174.668ZM87.8219 174.227C88.0879 174.227 88.3235 174.168 88.5289 174.052C88.7342 173.93 88.8952 173.762 89.0119 173.548C89.1332 173.328 89.1939 173.076 89.1939 172.792C89.1939 172.502 89.1332 172.25 89.0119 172.036C88.8952 171.821 88.7342 171.655 88.5289 171.539C88.3235 171.417 88.0902 171.357 87.8289 171.357C87.5675 171.357 87.3342 171.417 87.1289 171.539C86.9235 171.655 86.7602 171.821 86.6389 172.036C86.5175 172.25 86.4569 172.502 86.4569 172.792C86.4569 173.076 86.5175 173.328 86.6389 173.548C86.7602 173.762 86.9235 173.93 87.1289 174.052C87.3342 174.168 87.5652 174.227 87.8219 174.227ZM90.7125 174.633V170.958H91.1885V171.959L91.1395 171.784C91.2422 171.504 91.4149 171.291 91.6575 171.147C91.9002 170.997 92.2012 170.923 92.5605 170.923V171.406C92.5419 171.406 92.5232 171.406 92.5045 171.406C92.4859 171.401 92.4672 171.399 92.4485 171.399C92.0612 171.399 91.7579 171.518 91.5385 171.756C91.3192 171.989 91.2095 172.323 91.2095 172.757V174.633H90.7125ZM94.8962 174.668C94.5462 174.668 94.2312 174.588 93.9512 174.43C93.6759 174.271 93.4589 174.052 93.3002 173.772C93.1416 173.487 93.0622 173.16 93.0622 172.792C93.0622 172.418 93.1416 172.092 93.3002 171.812C93.4589 171.532 93.6759 171.315 93.9512 171.161C94.2312 171.002 94.5462 170.923 94.8962 170.923C95.2182 170.923 95.5052 170.995 95.7572 171.14C96.0139 171.284 96.2169 171.497 96.3662 171.777C96.5202 172.052 96.5972 172.39 96.5972 172.792C96.5972 173.188 96.5226 173.527 96.3732 173.807C96.2239 174.087 96.0209 174.301 95.7642 174.451C95.5122 174.595 95.2229 174.668 94.8962 174.668ZM94.9312 174.227C95.1926 174.227 95.4259 174.168 95.6312 174.052C95.8412 173.93 96.0046 173.762 96.1212 173.548C96.2426 173.328 96.3032 173.076 96.3032 172.792C96.3032 172.502 96.2426 172.25 96.1212 172.036C96.0046 171.821 95.8412 171.655 95.6312 171.539C95.4259 171.417 95.1926 171.357 94.9312 171.357C94.6746 171.357 94.4436 171.417 94.2382 171.539C94.0329 171.655 93.8696 171.821 93.7482 172.036C93.6269 172.25 93.5662 172.502 93.5662 172.792C93.5662 173.076 93.6269 173.328 93.7482 173.548C93.8696 173.762 94.0329 173.93 94.2382 174.052C94.4436 174.168 94.6746 174.227 94.9312 174.227ZM96.3172 174.633V173.527L96.3662 172.785L96.2962 172.043V169.439H96.7932V174.633H96.3172Z" fill="#565656"/>
<path d="M46.0742 226.633V222.433H47.0462V225.841H49.1522V226.633H46.0742ZM51.1418 226.681C50.7978 226.681 50.4918 226.609 50.2238 226.465C49.9598 226.321 49.7498 226.125 49.5938 225.877C49.4418 225.625 49.3658 225.339 49.3658 225.019C49.3658 224.695 49.4418 224.409 49.5938 224.161C49.7498 223.909 49.9598 223.713 50.2238 223.573C50.4918 223.429 50.7978 223.357 51.1418 223.357C51.4818 223.357 51.7858 223.429 52.0538 223.573C52.3218 223.713 52.5318 223.907 52.6838 224.155C52.8358 224.403 52.9118 224.691 52.9118 225.019C52.9118 225.339 52.8358 225.625 52.6838 225.877C52.5318 226.125 52.3218 226.321 52.0538 226.465C51.7858 226.609 51.4818 226.681 51.1418 226.681ZM51.1418 225.913C51.2978 225.913 51.4378 225.877 51.5618 225.805C51.6858 225.733 51.7838 225.631 51.8558 225.499C51.9278 225.363 51.9638 225.203 51.9638 225.019C51.9638 224.831 51.9278 224.671 51.8558 224.539C51.7838 224.407 51.6858 224.305 51.5618 224.233C51.4378 224.161 51.2978 224.125 51.1418 224.125C50.9858 224.125 50.8458 224.161 50.7218 224.233C50.5978 224.305 50.4978 224.407 50.4218 224.539C50.3498 224.671 50.3138 224.831 50.3138 225.019C50.3138 225.203 50.3498 225.363 50.4218 225.499C50.4978 225.631 50.5978 225.733 50.7218 225.805C50.8458 225.877 50.9858 225.913 51.1418 225.913ZM55.0555 227.845C54.7515 227.845 54.4575 227.807 54.1735 227.731C53.8935 227.659 53.6595 227.549 53.4715 227.401L53.8435 226.729C53.9795 226.841 54.1515 226.929 54.3595 226.993C54.5715 227.061 54.7795 227.095 54.9835 227.095C55.3155 227.095 55.5555 227.021 55.7035 226.873C55.8555 226.725 55.9315 226.505 55.9315 226.213V225.727L55.9915 224.917L55.9795 224.101V223.405H56.8675V226.093C56.8675 226.693 56.7115 227.135 56.3995 227.419C56.0875 227.703 55.6395 227.845 55.0555 227.845ZM54.9115 226.477C54.6115 226.477 54.3395 226.413 54.0955 226.285C53.8555 226.153 53.6615 225.971 53.5135 225.739C53.3695 225.503 53.2975 225.229 53.2975 224.917C53.2975 224.601 53.3695 224.327 53.5135 224.095C53.6615 223.859 53.8555 223.677 54.0955 223.549C54.3395 223.421 54.6115 223.357 54.9115 223.357C55.1835 223.357 55.4235 223.413 55.6315 223.525C55.8395 223.633 56.0015 223.803 56.1175 224.035C56.2335 224.263 56.2915 224.557 56.2915 224.917C56.2915 225.273 56.2335 225.567 56.1175 225.799C56.0015 226.027 55.8395 226.197 55.6315 226.309C55.4235 226.421 55.1835 226.477 54.9115 226.477ZM55.0975 225.709C55.2615 225.709 55.4075 225.677 55.5355 225.613C55.6635 225.545 55.7635 225.451 55.8355 225.331C55.9075 225.211 55.9435 225.073 55.9435 224.917C55.9435 224.757 55.9075 224.619 55.8355 224.503C55.7635 224.383 55.6635 224.291 55.5355 224.227C55.4075 224.159 55.2615 224.125 55.0975 224.125C54.9335 224.125 54.7875 224.159 54.6595 224.227C54.5315 224.291 54.4295 224.383 54.3535 224.503C54.2815 224.619 54.2455 224.757 54.2455 224.917C54.2455 225.073 54.2815 225.211 54.3535 225.331C54.4295 225.451 54.5315 225.545 54.6595 225.613C54.7875 225.677 54.9335 225.709 55.0975 225.709ZM57.8046 226.633V222.433H58.7766V226.633H57.8046ZM61.6694 223.357C61.9254 223.357 62.1534 223.409 62.3534 223.513C62.5574 223.613 62.7174 223.769 62.8334 223.981C62.9494 224.189 63.0074 224.457 63.0074 224.785V226.633H62.0714V224.929C62.0714 224.669 62.0134 224.477 61.8974 224.353C61.7854 224.229 61.6254 224.167 61.4174 224.167C61.2694 224.167 61.1354 224.199 61.0154 224.263C60.8994 224.323 60.8074 224.417 60.7394 224.545C60.6754 224.673 60.6434 224.837 60.6434 225.037V226.633H59.7074V223.405H60.6014V224.299L60.4334 224.029C60.5494 223.813 60.7154 223.647 60.9314 223.531C61.1474 223.415 61.3934 223.357 61.6694 223.357Z" fill="white"/>
<path d="M47.2567 151.817L45.8767 152.597V152.437L47.2567 153.217L47.0267 153.637L45.6667 152.847L45.7767 152.797V154.327H45.3167L45.3267 152.797L45.4267 152.847L44.0767 153.637L43.8367 153.217L45.2267 152.437V152.597L43.8367 151.817L44.0767 151.397L45.4267 152.187L45.3267 152.237L45.3167 150.707H45.7767V152.237L45.6667 152.187L47.0267 151.397L47.2567 151.817ZM54.6094 151.817L53.2294 152.597V152.437L54.6094 153.217L54.3794 153.637L53.0194 152.847L53.1294 152.797V154.327H52.6694L52.6794 152.797L52.7794 152.847L51.4294 153.637L51.1894 153.217L52.5794 152.437V152.597L51.1894 151.817L51.4294 151.397L52.7794 152.187L52.6794 152.237L52.6694 150.707H53.1294V152.237L53.0194 152.187L54.3794 151.397L54.6094 151.817ZM61.9622 151.817L60.5822 152.597V152.437L61.9622 153.217L61.7322 153.637L60.3722 152.847L60.4822 152.797V154.327H60.0222L60.0322 152.797L60.1322 152.847L58.7822 153.637L58.5422 153.217L59.9322 152.437V152.597L58.5422 151.817L58.7822 151.397L60.1322 152.187L60.0322 152.237L60.0222 150.707H60.4822V152.237L60.3722 152.187L61.7322 151.397L61.9622 151.817ZM69.3149 151.817L67.9349 152.597V152.437L69.3149 153.217L69.0849 153.637L67.7249 152.847L67.8349 152.797V154.327H67.3749L67.3849 152.797L67.4849 152.847L66.1349 153.637L65.8949 153.217L67.2849 152.437V152.597L65.8949 151.817L66.1349 151.397L67.4849 152.187L67.3849 152.237L67.3749 150.707H67.8349V152.237L67.7249 152.187L69.0849 151.397L69.3149 151.817ZM76.6676 151.817L75.2876 152.597V152.437L76.6676 153.217L76.4376 153.637L75.0776 152.847L75.1876 152.797V154.327H74.7276L74.7376 152.797L74.8376 152.847L73.4876 153.637L73.2476 153.217L74.6376 152.437V152.597L73.2476 151.817L73.4876 151.397L74.8376 152.187L74.7376 152.237L74.7276 150.707H75.1876V152.237L75.0776 152.187L76.4376 151.397L76.6676 151.817ZM84.0204 151.817L82.6404 152.597V152.437L84.0204 153.217L83.7904 153.637L82.4304 152.847L82.5404 152.797V154.327H82.0804L82.0904 152.797L82.1904 152.847L80.8404 153.637L80.6004 153.217L81.9904 152.437V152.597L80.6004 151.817L80.8404 151.397L82.1904 152.187L82.0904 152.237L82.0804 150.707H82.5404V152.237L82.4304 152.187L83.7904 151.397L84.0204 151.817ZM91.3731 151.817L89.9931 152.597V152.437L91.3731 153.217L91.1431 153.637L89.7831 152.847L89.8931 152.797V154.327H89.4331L89.4431 152.797L89.5431 152.847L88.1931 153.637L87.9531 153.217L89.3431 152.437V152.597L87.9531 151.817L88.1931 151.397L89.5431 152.187L89.4431 152.237L89.4331 150.707H89.8931V152.237L89.7831 152.187L91.1431 151.397L91.3731 151.817ZM98.7258 151.817L97.3458 152.597V152.437L98.7258 153.217L98.4958 153.637L97.1358 152.847L97.2458 152.797V154.327H96.7858L96.7958 152.797L96.8958 152.847L95.5458 153.637L95.3058 153.217L96.6958 152.437V152.597L95.3058 151.817L95.5458 151.397L96.8958 152.187L96.7958 152.237L96.7858 150.707H97.2458V152.237L97.1358 152.187L98.4958 151.397L98.7258 151.817ZM106.079 151.817L104.699 152.597V152.437L106.079 153.217L105.849 153.637L104.489 152.847L104.599 152.797V154.327H104.139L104.149 152.797L104.249 152.847L102.899 153.637L102.659 153.217L104.049 152.437V152.597L102.659 151.817L102.899 151.397L104.249 152.187L104.149 152.237L104.139 150.707H104.599V152.237L104.489 152.187L105.849 151.397L106.079 151.817ZM113.431 151.817L112.051 152.597V152.437L113.431 153.217L113.201 153.637L111.841 152.847L111.951 152.797V154.327H111.491L111.501 152.797L111.601 152.847L110.251 153.637L110.011 153.217L111.401 152.437V152.597L110.011 151.817L110.251 151.397L111.601 152.187L111.501 152.237L111.491 150.707H111.951V152.237L111.841 152.187L113.201 151.397L113.431 151.817Z" fill="#3E59B7"/>
<path d="M47.2567 193.424L45.8767 194.204V194.044L47.2567 194.824L47.0267 195.244L45.6667 194.454L45.7767 194.404V195.934H45.3167L45.3267 194.404L45.4267 194.454L44.0767 195.244L43.8367 194.824L45.2267 194.044V194.204L43.8367 193.424L44.0767 193.004L45.4267 193.794L45.3267 193.844L45.3167 192.314H45.7767V193.844L45.6667 193.794L47.0267 193.004L47.2567 193.424ZM54.6094 193.424L53.2294 194.204V194.044L54.6094 194.824L54.3794 195.244L53.0194 194.454L53.1294 194.404V195.934H52.6694L52.6794 194.404L52.7794 194.454L51.4294 195.244L51.1894 194.824L52.5794 194.044V194.204L51.1894 193.424L51.4294 193.004L52.7794 193.794L52.6794 193.844L52.6694 192.314H53.1294V193.844L53.0194 193.794L54.3794 193.004L54.6094 193.424ZM61.9622 193.424L60.5822 194.204V194.044L61.9622 194.824L61.7322 195.244L60.3722 194.454L60.4822 194.404V195.934H60.0222L60.0322 194.404L60.1322 194.454L58.7822 195.244L58.5422 194.824L59.9322 194.044V194.204L58.5422 193.424L58.7822 193.004L60.1322 193.794L60.0322 193.844L60.0222 192.314H60.4822V193.844L60.3722 193.794L61.7322 193.004L61.9622 193.424ZM69.3149 193.424L67.9349 194.204V194.044L69.3149 194.824L69.0849 195.244L67.7249 194.454L67.8349 194.404V195.934H67.3749L67.3849 194.404L67.4849 194.454L66.1349 195.244L65.8949 194.824L67.2849 194.044V194.204L65.8949 193.424L66.1349 193.004L67.4849 193.794L67.3849 193.844L67.3749 192.314H67.8349V193.844L67.7249 193.794L69.0849 193.004L69.3149 193.424ZM76.6676 193.424L75.2876 194.204V194.044L76.6676 194.824L76.4376 195.244L75.0776 194.454L75.1876 194.404V195.934H74.7276L74.7376 194.404L74.8376 194.454L73.4876 195.244L73.2476 194.824L74.6376 194.044V194.204L73.2476 193.424L73.4876 193.004L74.8376 193.794L74.7376 193.844L74.7276 192.314H75.1876V193.844L75.0776 193.794L76.4376 193.004L76.6676 193.424ZM84.0204 193.424L82.6404 194.204V194.044L84.0204 194.824L83.7904 195.244L82.4304 194.454L82.5404 194.404V195.934H82.0804L82.0904 194.404L82.1904 194.454L80.8404 195.244L80.6004 194.824L81.9904 194.044V194.204L80.6004 193.424L80.8404 193.004L82.1904 193.794L82.0904 193.844L82.0804 192.314H82.5404V193.844L82.4304 193.794L83.7904 193.004L84.0204 193.424ZM91.3731 193.424L89.9931 194.204V194.044L91.3731 194.824L91.1431 195.244L89.7831 194.454L89.8931 194.404V195.934H89.4331L89.4431 194.404L89.5431 194.454L88.1931 195.244L87.9531 194.824L89.3431 194.044V194.204L87.9531 193.424L88.1931 193.004L89.5431 193.794L89.4431 193.844L89.4331 192.314H89.8931V193.844L89.7831 193.794L91.1431 193.004L91.3731 193.424ZM98.7258 193.424L97.3458 194.204V194.044L98.7258 194.824L98.4958 195.244L97.1358 194.454L97.2458 194.404V195.934H96.7858L96.7958 194.404L96.8958 194.454L95.5458 195.244L95.3058 194.824L96.6958 194.044V194.204L95.3058 193.424L95.5458 193.004L96.8958 193.794L96.7958 193.844L96.7858 192.314H97.2458V193.844L97.1358 193.794L98.4958 193.004L98.7258 193.424ZM106.079 193.424L104.699 194.204V194.044L106.079 194.824L105.849 195.244L104.489 194.454L104.599 194.404V195.934H104.139L104.149 194.404L104.249 194.454L102.899 195.244L102.659 194.824L104.049 194.044V194.204L102.659 193.424L102.899 193.004L104.249 193.794L104.149 193.844L104.139 192.314H104.599V193.844L104.489 193.794L105.849 193.004L106.079 193.424ZM113.431 193.424L112.051 194.204V194.044L113.431 194.824L113.201 195.244L111.841 194.454L111.951 194.404V195.934H111.491L111.501 194.404L111.601 194.454L110.251 195.244L110.011 194.824L111.401 194.044V194.204L110.011 193.424L110.251 193.004L111.601 193.794L111.501 193.844L111.491 192.314H111.951V193.844L111.841 193.794L113.201 193.004L113.431 193.424Z" fill="#3E59B7"/>
<g filter="url(#filter1_d_660_6252)">
<rect x="175.01" y="68.3867" width="227.748" height="33.9431" rx="5" fill="#738CFF"/>
</g>
<rect x="269.174" y="82.6211" width="16.4241" height="4.37976" rx="2.18988" fill="white"/>
<rect x="289.978" y="82.6211" width="15.3292" height="4.37976" rx="2.18988" fill="white"/>
<rect x="188.149" y="78.2412" width="13.1393" height="13.1393" rx="5" fill="white"/>
<rect x="309.687" y="82.6211" width="16.4241" height="4.37976" rx="2.18988" fill="white"/>
<rect x="330.491" y="82.6211" width="16.4241" height="4.37976" rx="2.18988" fill="white"/>
<rect x="351.295" y="82.6211" width="16.4241" height="4.37976" rx="2.18988" fill="white"/>
<rect x="386.333" y="83.7158" width="4.37976" height="2.18988" rx="1.09494" fill="white"/>
<defs>
<filter id="filter0_d_660_6252" x="0.243164" y="100.089" width="209.526" height="176.678" filterUnits="userSpaceOnUse" color-interpolation-filters="sRGB">
<feFlood flood-opacity="0" result="BackgroundImageFix"/>
<feColorMatrix in="SourceAlpha" type="matrix" values="0 0 0 0 0 0 0 0 0 0 0 0 0 0 0 0 0 0 127 0" result="hardAlpha"/>
<feOffset dx="5" dy="10"/>
<feGaussianBlur stdDeviation="10.5"/>
<feComposite in2="hardAlpha" operator="out"/>
<feColorMatrix type="matrix" values="0 0 0 0 0.700272 0 0 0 0 0.700272 0 0 0 0 0.700272 0 0 0 0.25 0"/>
<feBlend mode="normal" in2="BackgroundImageFix" result="effect1_dropShadow_660_6252"/>
<feBlend mode="normal" in="SourceGraphic" in2="effect1_dropShadow_660_6252" result="shape"/>
</filter>
<filter id="filter1_d_660_6252" x="174.01" y="68.3867" width="241.748" height="47.9434" filterUnits="userSpaceOnUse" color-interpolation-filters="sRGB">
<feFlood flood-opacity="0" result="BackgroundImageFix"/>
<feColorMatrix in="SourceAlpha" type="matrix" values="0 0 0 0 0 0 0 0 0 0 0 0 0 0 0 0 0 0 127 0" result="hardAlpha"/>
<feOffset dx="6" dy="7"/>
<feGaussianBlur stdDeviation="3.5"/>
<feComposite in2="hardAlpha" operator="out"/>
<feColorMatrix type="matrix" values="0 0 0 0 0.500272 0 0 0 0 0.500272 0 0 0 0 0.500272 0 0 0 0.25 0"/>
<feBlend mode="normal" in2="BackgroundImageFix" result="effect1_dropShadow_660_6252"/>
<feBlend mode="normal" in="SourceGraphic" in2="effect1_dropShadow_660_6252" result="shape"/>
</filter>
</defs>
</svg>
