<svg width="386" height="287" viewBox="0 0 386 287" fill="none" xmlns="http://www.w3.org/2000/svg">
<rect x="60.8596" y="48.3926" width="257.407" height="188.992" stroke="#C6C6C6" stroke-width="2" stroke-linejoin="round" stroke-dasharray="3 3"/>
<rect x="0.5" y="0.832031" width="268.26" height="202.564" fill="#F1F1F1"/>
<rect x="7.06958" y="30.3955" width="255.121" height="168.621" fill="white"/>
<rect x="27.8734" y="52.2949" width="211.323" height="122.633" rx="8" fill="#F1F1F1"/>
<rect x="244.672" y="13.9717" width="16.4241" height="4.37976" rx="2.18988" fill="#C4C4C4"/>
<rect x="43.7061" y="91.1016" width="78.8672" height="4.75104" rx="2.37552" fill="white"/>
<rect x="43.7061" y="138.612" width="78.8672" height="4.75104" rx="2.37552" fill="white"/>
<rect x="138.727" y="91.1016" width="78.8672" height="4.75104" rx="2.37552" fill="#4D69E9"/>
<rect x="43.7061" y="83.5" width="78.8672" height="4.75104" rx="2.37552" fill="white"/>
<rect x="43.7061" y="131.011" width="78.8672" height="4.75104" rx="2.37552" fill="#819DFF"/>
<rect x="138.727" y="83.5" width="78.8672" height="4.75104" rx="2.37552" fill="white"/>
<rect x="43.7061" y="98.7031" width="78.8672" height="4.75104" rx="2.37552" fill="white"/>
<rect x="43.7061" y="146.214" width="78.8672" height="4.75104" rx="2.37552" fill="#819DFF"/>
<rect x="138.727" y="98.7031" width="78.8672" height="4.75104" rx="2.37552" fill="white"/>
<rect x="43.7061" y="106.305" width="44.6598" height="4.75104" rx="2.37552" fill="#4D69E9"/>
<rect x="43.7061" y="153.815" width="44.6598" height="4.75104" rx="2.37552" fill="white"/>
<rect x="138.727" y="106.305" width="44.6598" height="4.75104" rx="2.37552" fill="white"/>
<circle cx="9.80693" cy="15.6133" r="2.73735" fill="#C4C4C4"/>
<circle cx="17.4716" cy="15.6133" r="2.73735" fill="#C4C4C4"/>
<circle cx="25.1362" cy="15.6133" r="2.73735" fill="#C4C4C4"/>
<g filter="url(#filter0_d_660_6299)">
<rect x="160.582" y="120.559" width="198.883" height="134.678" rx="15" fill="white"/>
</g>
<line x1="202.19" y1="188.483" x2="321.167" y2="188.483" stroke="#F1F1F1"/>
<line x1="200.49" y1="211.466" x2="319.467" y2="211.466" stroke="#F1F1F1"/>
<line x1="200.49" y1="176.991" x2="319.467" y2="176.991" stroke="#F1F1F1"/>
<line x1="200.49" y1="199.975" x2="319.467" y2="199.975" stroke="#F1F1F1"/>
<line x1="200.49" y1="165.499" x2="319.467" y2="165.499" stroke="#F1F1F1"/>
<line x1="209.489" y1="154.507" x2="209.489" y2="218.43" stroke="#F1F1F1"/>
<line x1="250.281" y1="154.507" x2="250.281" y2="218.43" stroke="#F1F1F1"/>
<line x1="291.073" y1="154.507" x2="291.073" y2="218.43" stroke="#F1F1F1"/>
<line x1="223.086" y1="153.789" x2="223.086" y2="217.712" stroke="#F1F1F1"/>
<line x1="263.878" y1="153.789" x2="263.878" y2="217.712" stroke="#F1F1F1"/>
<line x1="304.67" y1="153.789" x2="304.67" y2="217.712" stroke="#F1F1F1"/>
<line x1="236.683" y1="153.789" x2="236.683" y2="217.712" stroke="#F1F1F1"/>
<line x1="277.475" y1="153.789" x2="277.475" y2="217.712" stroke="#F1F1F1"/>
<line x1="318.267" y1="153.789" x2="318.267" y2="217.712" stroke="#F1F1F1"/>
<rect x="185.287" y="155.716" width="5.70124" height="2.85062" rx="1.42531" fill="#E0DBFF"/>
<rect x="186.237" y="212.729" width="5.70124" height="2.85062" rx="1.42531" fill="#E0DBFF"/>
<rect x="185.287" y="184.222" width="5.70124" height="2.85062" rx="1.42531" fill="#E0DBFF"/>
<rect x="197.64" y="235.533" width="5.70124" height="2.85062" rx="1.42531" transform="rotate(-90 197.64 235.533)" fill="#E0DBFF"/>
<rect x="226.146" y="235.533" width="5.70124" height="2.85062" rx="1.42531" transform="rotate(-90 226.146 235.533)" fill="#E0DBFF"/>
<rect x="254.652" y="235.533" width="5.70124" height="2.85062" rx="1.42531" transform="rotate(-90 254.652 235.533)" fill="#E0DBFF"/>
<rect x="283.158" y="235.533" width="5.70124" height="2.85062" rx="1.42531" transform="rotate(-90 283.158 235.533)" fill="#E0DBFF"/>
<rect x="311.665" y="235.533" width="5.70124" height="2.85062" rx="1.42531" transform="rotate(-90 311.665 235.533)" fill="#E0DBFF"/>
<rect x="185.287" y="169.969" width="5.70124" height="2.85062" rx="1.42531" fill="#E0DBFF"/>
<rect x="186.237" y="226.981" width="5.70124" height="2.85062" rx="1.42531" fill="#E0DBFF"/>
<rect x="185.287" y="198.476" width="5.70124" height="2.85062" rx="1.42531" fill="#E0DBFF"/>
<rect x="211.893" y="235.533" width="5.70124" height="2.85062" rx="1.42531" transform="rotate(-90 211.893 235.533)" fill="#E0DBFF"/>
<rect x="240.399" y="235.533" width="5.70124" height="2.85062" rx="1.42531" transform="rotate(-90 240.399 235.533)" fill="#E0DBFF"/>
<rect x="268.905" y="235.533" width="5.70124" height="2.85062" rx="1.42531" transform="rotate(-90 268.905 235.533)" fill="#E0DBFF"/>
<rect x="297.412" y="235.533" width="5.70124" height="2.85062" rx="1.42531" transform="rotate(-90 297.412 235.533)" fill="#E0DBFF"/>
<rect x="325.918" y="235.533" width="5.70124" height="2.85062" rx="1.42531" transform="rotate(-90 325.918 235.533)" fill="#E0DBFF"/>
<path d="M264.01 195.15C230.167 183.004 207.911 207.003 200.245 221.764C199.906 222.416 200.388 223.181 201.123 223.181H321.117C321.669 223.181 322.117 222.733 322.117 222.181V157.746C322.117 156.557 320.085 156.273 319.699 157.397C312.505 178.307 294.626 206.137 264.01 195.15Z" fill="#738CFF"/>
<path d="M190.038 148.114V232.683H332.094" stroke="#E0DBFF" stroke-width="3"/>
<defs>
<filter id="filter0_d_660_6299" x="144.582" y="109.559" width="240.883" height="176.678" filterUnits="userSpaceOnUse" color-interpolation-filters="sRGB">
<feFlood flood-opacity="0" result="BackgroundImageFix"/>
<feColorMatrix in="SourceAlpha" type="matrix" values="0 0 0 0 0 0 0 0 0 0 0 0 0 0 0 0 0 0 127 0" result="hardAlpha"/>
<feOffset dx="5" dy="10"/>
<feGaussianBlur stdDeviation="10.5"/>
<feComposite in2="hardAlpha" operator="out"/>
<feColorMatrix type="matrix" values="0 0 0 0 0.700272 0 0 0 0 0.700272 0 0 0 0 0.700272 0 0 0 0.25 0"/>
<feBlend mode="normal" in2="BackgroundImageFix" result="effect1_dropShadow_660_6299"/>
<feBlend mode="normal" in="SourceGraphic" in2="effect1_dropShadow_660_6299" result="shape"/>
</filter>
</defs>
</svg>
