<svg width="1168" height="149" viewBox="0 0 1168 149" fill="none" xmlns="http://www.w3.org/2000/svg">
<path d="M209.435 120L203.122 100.688H169.06L162.31 120H148.31L185.497 27.1875H188.81L223.31 120H209.435ZM186.56 51.1875L172.372 91.5H199.56L186.56 51.1875ZM235.122 120V28.4375H247.622V120H235.122ZM319.685 39.6875V65.125H351.872V75.75H319.685V120H307.185V28.4375H363.747V39.6875H319.685ZM369.122 86.375C369.122 76.0417 371.893 67.7083 377.435 61.375C383.018 55 390.351 51.8125 399.435 51.8125C409.018 51.8125 416.455 54.875 421.747 61C427.039 67.0833 429.685 75.5417 429.685 86.375C429.685 97.1667 426.976 105.688 421.56 111.938C416.143 118.146 408.768 121.25 399.435 121.25C389.893 121.25 382.455 118.104 377.122 111.812C371.789 105.521 369.122 97.0417 369.122 86.375ZM381.622 86.375C381.622 103.167 387.56 111.562 399.435 111.562C404.976 111.562 409.31 109.312 412.435 104.812C415.601 100.312 417.185 94.1667 417.185 86.375C417.185 69.7917 411.268 61.5 399.435 61.5C394.018 61.5 389.685 63.7083 386.435 68.125C383.226 72.5417 381.622 78.625 381.622 86.375ZM478.622 64.5C476.039 62.7083 473.435 61.8125 470.81 61.8125C466.601 61.8125 462.914 63.75 459.747 67.625C456.622 71.5 455.06 76.1667 455.06 81.625V120H443.185V53.0625H455.06V63.75C459.393 55.7917 465.83 51.8125 474.372 51.8125C476.497 51.8125 479.56 52.1875 483.56 52.9375L478.622 64.5ZM496.247 62.4375H488.497V53.0625H496.247V39.0625L508.122 34.5V53.0625H526.497V62.4375H508.122V95.6875C508.122 101.312 509.06 105.312 510.935 107.688C512.851 110.062 515.914 111.25 520.122 111.25C523.164 111.25 526.31 110.479 529.56 108.938L531.31 119.375C526.393 120.625 520.997 121.25 515.122 121.25C509.83 121.25 505.351 119.292 501.685 115.375C498.06 111.417 496.247 106.438 496.247 100.438V62.4375ZM553.997 53.0625V95.75C553.997 106.083 558.476 111.25 567.435 111.25C571.351 111.25 574.935 110.125 578.185 107.875C581.435 105.625 583.58 103.021 584.622 100.062V53.0625H596.497V120H584.622V110.75C583.289 113.375 580.601 115.792 576.56 118C572.56 120.167 568.643 121.25 564.81 121.25C557.476 121.25 551.851 119.146 547.935 114.938C544.06 110.729 542.122 104.75 542.122 97V53.0625H553.997ZM653.935 120V81.0625C653.935 73.9375 652.851 68.9583 650.685 66.125C648.56 63.25 644.976 61.8125 639.935 61.8125C637.226 61.8125 634.393 62.625 631.435 64.25C628.476 65.875 626.205 67.875 624.622 70.25V120H612.747V53.0625H620.872L624.622 61.6875C628.539 55.1042 634.935 51.8125 643.81 51.8125C658.476 51.8125 665.81 60.7292 665.81 78.5625V120H653.935ZM739.122 87.6875H690.872C690.872 95.5208 693.018 101.542 697.31 105.75C701.101 109.417 705.976 111.25 711.935 111.25C718.726 111.25 724.393 109.271 728.935 105.312L733.935 113.875C732.101 115.708 729.289 117.292 725.497 118.625C720.747 120.375 715.455 121.25 709.622 121.25C701.205 121.25 694.06 118.396 688.185 112.688C681.643 106.396 678.372 97.9375 678.372 87.3125C678.372 76.2708 681.726 67.4167 688.435 60.75C694.435 54.7917 701.539 51.8125 709.747 51.8125C719.289 51.8125 726.768 54.5 732.185 59.875C737.435 65.0417 740.06 71.8958 740.06 80.4375C740.06 83.0625 739.747 85.4792 739.122 87.6875ZM710.31 61.8125C705.018 61.8125 700.58 63.5208 696.997 66.9375C693.58 70.1875 691.643 74.2292 691.185 79.0625H728.247C728.247 74.2708 726.747 70.2708 723.747 67.0625C720.455 63.5625 715.976 61.8125 710.31 61.8125ZM850.622 31.8125L846.435 42.5C842.435 39.5833 836.143 38.125 827.56 38.125C819.518 38.125 813.06 41.5833 808.185 48.5C803.351 55.4167 800.935 64.3333 800.935 75.25C800.935 85.6667 803.414 94.125 808.372 100.625C813.372 107.083 819.81 110.312 827.685 110.312C836.268 110.312 842.872 107.271 847.497 101.188L854.372 110.75C847.122 117.958 837.789 121.562 826.372 121.562C814.414 121.562 804.997 117.25 798.122 108.625C791.247 100 787.81 88.625 787.81 74.5C787.81 60.8333 791.476 49.4792 798.81 40.4375C806.143 31.3958 815.622 26.875 827.247 26.875C837.205 26.875 844.997 28.5208 850.622 31.8125ZM863.497 86.375C863.497 76.0417 866.268 67.7083 871.81 61.375C877.393 55 884.726 51.8125 893.81 51.8125C903.393 51.8125 910.83 54.875 916.122 61C921.414 67.0833 924.06 75.5417 924.06 86.375C924.06 97.1667 921.351 105.688 915.935 111.938C910.518 118.146 903.143 121.25 893.81 121.25C884.268 121.25 876.83 118.104 871.497 111.812C866.164 105.521 863.497 97.0417 863.497 86.375ZM875.997 86.375C875.997 103.167 881.935 111.562 893.81 111.562C899.351 111.562 903.685 109.312 906.81 104.812C909.976 100.312 911.56 94.1667 911.56 86.375C911.56 69.7917 905.643 61.5 893.81 61.5C888.393 61.5 884.06 63.7083 880.81 68.125C877.601 72.5417 875.997 78.625 875.997 86.375ZM932.247 86.375C932.247 76.0417 935.018 67.7083 940.56 61.375C946.143 55 953.476 51.8125 962.56 51.8125C972.143 51.8125 979.58 54.875 984.872 61C990.164 67.0833 992.81 75.5417 992.81 86.375C992.81 97.1667 990.101 105.688 984.685 111.938C979.268 118.146 971.893 121.25 962.56 121.25C953.018 121.25 945.58 118.104 940.247 111.812C934.914 105.521 932.247 97.0417 932.247 86.375ZM944.747 86.375C944.747 103.167 950.685 111.562 962.56 111.562C968.101 111.562 972.435 109.312 975.56 104.812C978.726 100.312 980.31 94.1667 980.31 86.375C980.31 69.7917 974.393 61.5 962.56 61.5C957.143 61.5 952.81 63.7083 949.56 68.125C946.351 72.5417 944.747 78.625 944.747 86.375ZM1048.62 120L1027.62 86.5L1017.25 97.1875V120H1005.37V25.625H1017.25V84.1875L1042.87 53.0625H1056.75L1035.31 78.5L1061.5 120H1048.62ZM1082.25 27.75C1084.29 27.75 1086.02 28.4792 1087.43 29.9375C1088.89 31.3542 1089.62 33.0625 1089.62 35.0625C1089.62 37.1042 1088.89 38.8542 1087.43 40.3125C1086.02 41.7292 1084.29 42.4375 1082.25 42.4375C1080.25 42.4375 1078.52 41.7292 1077.06 40.3125C1075.64 38.8542 1074.93 37.1042 1074.93 35.0625C1074.93 33.0208 1075.64 31.2917 1077.06 29.875C1078.48 28.4583 1080.21 27.75 1082.25 27.75ZM1075.75 120V63.0625H1066.56V53.0625H1087.62V120H1075.75ZM1162.87 87.6875H1114.62C1114.62 95.5208 1116.77 101.542 1121.06 105.75C1124.85 109.417 1129.73 111.25 1135.68 111.25C1142.48 111.25 1148.14 109.271 1152.68 105.312L1157.68 113.875C1155.85 115.708 1153.04 117.292 1149.25 118.625C1144.5 120.375 1139.21 121.25 1133.37 121.25C1124.96 121.25 1117.81 118.396 1111.93 112.688C1105.39 106.396 1102.12 97.9375 1102.12 87.3125C1102.12 76.2708 1105.48 67.4167 1112.18 60.75C1118.18 54.7917 1125.29 51.8125 1133.5 51.8125C1143.04 51.8125 1150.52 54.5 1155.93 59.875C1161.18 65.0417 1163.81 71.8958 1163.81 80.4375C1163.81 83.0625 1163.5 85.4792 1162.87 87.6875ZM1134.06 61.8125C1128.77 61.8125 1124.33 63.5208 1120.75 66.9375C1117.33 70.1875 1115.39 74.2292 1114.93 79.0625H1152C1152 74.2708 1150.5 70.2708 1147.5 67.0625C1144.21 63.5625 1139.73 61.8125 1134.06 61.8125Z" fill="white"/>
<path d="M26.3369 124.241C26.3369 124.241 25.8945 119.539 24.5622 118.908C23.23 118.278 19.5139 121.012 19.5139 121.012L67.8179 18.9489L74.6409 22.178L26.3369 124.241Z" fill="white"/>
<rect x="63.9043" y="30.124" width="7.54855" height="32.0575" transform="rotate(-63.9331 63.9043 30.124)" fill="white"/>
<rect x="50.6055" y="61.5225" width="7.54855" height="77.9888" transform="rotate(-63.9331 50.6055 61.5225)" fill="white"/>
<path d="M17.9226 119.422C9.82554 110.404 4.58441 99.1873 2.86203 87.1906C1.13966 75.194 3.01338 62.9559 8.24626 52.0242C13.4791 41.0924 21.8362 31.9579 32.2605 25.7757C42.6848 19.5935 54.7083 16.6413 66.8105 17.2925C78.9127 17.9436 90.55 22.1689 100.251 29.4339C109.952 36.6989 117.28 46.6774 121.31 58.1075C125.34 69.5377 125.889 81.906 122.89 93.6486C119.89 105.391 113.476 115.981 104.458 124.078L66.8105 17.2925L17.9226 119.422Z" fill="white"/>
</svg>
