<svg width="362" height="129" viewBox="0 0 362 129" fill="none" xmlns="http://www.w3.org/2000/svg">
<path fill-rule="evenodd" clip-rule="evenodd" d="M237.369 0H0V4.28296H7.58732V20.824H0V25.107H233.045L237.369 0ZM16.9899 4.28296H29.8394V20.824H16.9899V4.28296ZM52.1118 4.28296H39.2623V20.824H52.1118V4.28296ZM61.5144 4.28296H74.3638V20.824H61.5144V4.28296ZM96.6363 4.28296H83.7868V20.824H96.6363V4.28296ZM106.039 4.28296H118.888V20.824H106.039V4.28296ZM141.161 4.28296H128.311V20.824H141.161V4.28296ZM150.563 4.28296H163.413V20.824H150.563V4.28296ZM185.685 4.28296H172.836V20.824H185.685V4.28296ZM195.088 4.28296H207.937V20.824H195.088V4.28296ZM230.21 4.28296H217.36V20.824H230.21V4.28296Z" fill="#2759CD"/>
<path fill-rule="evenodd" clip-rule="evenodd" d="M232.311 30.1475H0V97.873H220.664L232.311 30.1475Z" fill="#2759CD"/>
<path d="M260.556 89.3261C257.007 89.3261 253.785 88.7353 250.929 87.5749C248.074 86.3934 245.647 84.7266 243.648 82.5957C241.649 80.4648 240.119 77.9541 239.059 75.0425C237.998 72.131 237.468 68.9451 237.468 65.485C237.468 60.8645 238.386 56.7503 240.221 53.1425C242.057 49.5558 244.627 46.7286 247.972 44.6821C251.296 42.6355 255.233 41.6228 259.74 41.6228C261.188 41.6228 262.616 41.7283 264.023 41.9393C265.41 42.1292 266.736 42.4034 267.98 42.7832C269.245 43.1208 270.428 43.5216 271.509 43.9436C272.59 44.3445 273.548 44.7875 274.344 45.2728L273.711 52.4462C272.1 51.4335 270.55 50.6107 269.02 49.9988C267.491 49.3659 266.022 48.9228 264.594 48.6485C263.167 48.3532 261.759 48.2055 260.413 48.2055C257.456 48.2055 254.825 48.9017 252.52 50.3153C250.215 51.6867 248.4 53.6699 247.095 56.265C245.789 58.839 245.137 61.9405 245.137 65.5272C245.137 67.9113 245.463 70.1688 246.136 72.2786C246.829 74.3674 247.849 76.224 249.195 77.8275C250.542 79.431 252.234 80.6758 254.274 81.6041C256.314 82.5113 258.68 82.9544 261.372 82.9544C262.412 82.9544 263.452 82.8911 264.472 82.7645C265.512 82.6168 266.552 82.3847 267.572 82.0894C268.612 81.794 269.632 81.372 270.632 80.8657C271.651 80.3593 272.651 79.7264 273.63 79.0301L274.119 86.1402C273.222 86.6888 272.243 87.153 271.182 87.596C270.122 87.9969 269 88.3345 267.837 88.5876C266.675 88.8408 265.471 89.0307 264.248 89.1784C263.024 89.3261 261.8 89.3683 260.556 89.3683V89.3261ZM300.226 89.3261C295.943 89.3261 292.455 88.5876 289.804 87.0897C287.152 85.5917 285.215 83.4818 283.991 80.7602C282.767 78.0385 282.155 74.8526 282.155 71.2026V42.4878H289.457V70.6119C289.457 73.1859 289.804 75.4012 290.518 77.2368C291.252 79.0723 292.394 80.4859 293.944 81.4775C295.535 82.448 297.616 82.9333 300.185 82.9333C302.755 82.9333 304.897 82.448 306.467 81.4775C308.038 80.4859 309.16 79.0723 309.833 77.2368C310.526 75.4012 310.873 73.1859 310.873 70.5908V42.4878H318.175V71.2448C318.175 74.9159 317.542 78.1018 316.278 80.8024C315.034 83.5029 313.076 85.5917 310.445 87.1108C307.793 88.5876 304.387 89.3472 300.226 89.3472V89.3261ZM339.387 88.5454V43.6482L342.222 49.176H324.763V42.4878H361.271V49.176H343.812L346.688 43.6482V88.5454H339.387Z" fill="#2759CD"/>
<path d="M24.3184 87.6792H10.4491V41.6216H26.8067C29.4174 41.6216 31.6201 41.8748 33.4354 42.4022C35.271 42.8875 36.7599 43.6259 37.9021 44.5753C39.0443 45.5037 39.8805 46.6219 40.4312 47.9722C40.9819 49.3014 41.2471 50.8204 41.2471 52.4872C41.2471 54.4494 40.9003 56.1583 40.2069 57.6141C39.5134 59.0699 38.5752 60.2936 37.3922 61.2641C36.2297 62.2346 34.9039 62.952 33.3946 63.4372V64.028C34.9447 64.3234 36.3928 64.893 37.7594 65.7158C39.1259 66.5387 40.2477 67.6991 41.1043 69.2393C41.9609 70.7373 42.3892 72.6783 42.3892 75.0624C42.3892 76.8769 42.0833 78.5436 41.4918 80.1049C40.9003 81.624 39.9213 82.9743 38.5548 84.1136C37.2087 85.2529 35.3526 86.139 33.0275 86.7931C30.7227 87.426 27.8061 87.7214 24.3184 87.7214V87.6792ZM15.9764 82.8266H24.7467C27.5817 82.8266 29.8661 82.489 31.5794 81.835C33.3334 81.1598 34.5776 80.2104 35.3526 78.9867C36.1481 77.763 36.5356 76.2861 36.5356 74.5982C36.5356 71.7711 35.577 69.7667 33.6597 68.5641C31.7425 67.3404 29.0503 66.7286 25.6033 66.7286H14.7119V62.0447H25.6033C27.8877 62.0447 29.7641 61.665 31.1918 60.8843C32.64 60.1037 33.7209 59.091 34.3736 57.8462C35.0263 56.6014 35.373 55.23 35.373 53.7531C35.373 51.2424 34.6184 49.3858 33.0887 48.2254C31.5998 47.0649 29.3562 46.4742 26.3784 46.4742H15.956V82.8477L15.9764 82.8266ZM50.772 87.6792V41.6216H65.8243C69.21 41.6216 72.045 42.0435 74.2886 42.8875C76.5526 43.7103 78.2454 45.0395 79.3876 46.854C80.5298 48.6895 81.1009 51.0947 81.1009 54.0907C81.1009 56.6014 80.6318 58.9222 79.6731 61.0109C78.7349 63.0997 77.1644 64.7875 74.9617 66.0534C72.7589 67.2982 69.7607 67.9312 66.0078 67.9523L67.7823 65.3994L74.7985 74.4717C75.8999 75.8641 77.0625 77.3621 78.2862 78.9656C79.51 80.5691 80.7133 82.1303 81.8759 83.6494C83.0385 85.1474 84.0787 86.4977 84.9965 87.6792H78.3678C76.8993 85.7381 75.4716 83.8604 74.0846 82.067C72.7385 80.2526 71.3924 78.5014 70.0666 76.7714L62.0714 66.1167L65.5387 68.9861H55.3203V64.1757H63.7847C66.3953 64.1757 68.5369 63.8592 70.2094 63.2474C71.9023 62.6144 73.1464 61.6228 73.9827 60.2514C74.8189 58.8589 75.2268 57.0023 75.2268 54.7025C75.2268 52.7826 74.9209 51.2846 74.3294 50.1875C73.7379 49.0693 72.9629 48.2464 71.9838 47.7401C71.0252 47.2337 69.985 46.8962 68.8633 46.7485C67.7415 46.6008 66.6605 46.5164 65.6203 46.5164H52.5057L56.2789 42.5077V87.7214H50.7516L50.772 87.6792ZM88.6678 87.6792C89.5448 85.2107 90.4422 82.5945 91.3804 79.8728C92.3391 77.13 93.2569 74.5349 94.1339 72.0875L99.6612 56.2638C100.64 53.4155 101.538 50.8626 102.354 48.584C103.169 46.2843 103.985 43.9635 104.781 41.6427H112.205C113.021 44.0057 113.816 46.3265 114.611 48.6262C115.407 50.9048 116.284 53.4788 117.263 56.306L122.75 72.1719C123.627 74.7037 124.524 77.3199 125.442 80.0205C126.38 82.7 127.277 85.2529 128.134 87.7003H122.26C121.363 84.9997 120.445 82.2358 119.486 79.4087C118.548 76.5393 117.671 73.8598 116.835 71.328L108.717 46.9173H108.187L100.008 71.117C99.1105 73.7543 98.1927 76.4971 97.2341 79.3876C96.2755 82.2569 95.3373 85.0208 94.3991 87.7214H88.6882L88.6678 87.6792ZM96.9078 76.1173L97.3973 71.539H119.935L120.343 76.1173H96.8874H96.9078ZM135.721 87.6792V41.6216H140.82C143.492 45.5037 146.042 49.2381 148.51 52.8248C150.957 56.4115 153.384 59.956 155.791 63.4583L165.438 77.552H165.907V41.6427H171.272V87.7003H166.254C164.051 84.4723 161.726 81.0754 159.299 77.5309C156.872 73.9653 154.18 70.041 151.284 65.7792L141.575 51.6011H141.147V87.7214H135.783L135.721 87.6792ZM182.795 87.6792V41.6216H198.439C201.866 41.6216 204.925 42.1279 207.597 43.1618C210.269 44.1745 212.492 45.6725 214.307 47.6557C216.143 49.6178 217.53 52.0019 218.468 54.8291C219.427 57.6563 219.896 60.8632 219.896 64.45C219.896 67.6991 219.488 70.7372 218.652 73.5644C217.815 76.3705 216.49 78.839 214.654 80.9699C212.839 83.0798 210.452 84.7254 207.495 85.9069C204.558 87.0884 200.989 87.6792 196.746 87.6792H182.795ZM188.445 82.8055H196.787C201.029 82.8055 204.415 82.0037 206.944 80.4214C209.453 78.7968 211.268 76.6026 212.37 73.8387C213.471 71.0326 214.022 67.889 214.022 64.3656C214.022 61.665 213.695 59.2387 213.022 57.0233C212.37 54.8291 211.37 52.9514 210.024 51.369C208.698 49.7866 206.985 48.584 204.864 47.7612C202.783 46.9173 200.316 46.4953 197.46 46.4953H188.445V82.8055Z" fill="white"/>
<path fill-rule="evenodd" clip-rule="evenodd" d="M220.522 102.939H0V107.222H7.26098V123.763H0V128.046H216.198L220.522 102.939ZM29.513 107.222H16.6228V123.763H29.513V107.222ZM38.8748 107.222H51.7651V123.763H38.8748V107.222ZM74.0375 107.222H61.1472V123.763H74.0375V107.222ZM83.3993 107.222H96.2896V123.763H83.3993V107.222ZM118.562 107.222H105.672V123.763H118.562V107.222ZM127.924 107.222H140.814V123.763H127.924V107.222ZM163.087 107.222H150.196V123.763H163.087V107.222ZM172.448 107.222H185.339V123.763H172.448V107.222ZM207.611 107.222H194.721V123.763H207.611V107.222Z" fill="#2759CD"/>
</svg>
