<svg width="110" height="80" viewBox="0 0 110 80" fill="none" xmlns="http://www.w3.org/2000/svg">
<path fill-rule="evenodd" clip-rule="evenodd" d="M77.9659 40.4602L86.0892 40.4869C86.0803 42.649 85.2083 44.722 83.6691 46.2435C83.3043 46.5994 82.9039 46.9286 82.4857 47.2133L77.9659 40.4602ZM69.2821 1.16066C69.0241 0.884843 69.0419 0.439976 69.3266 0.181953C69.6113 -0.0760698 70.0473 -0.058275 70.3142 0.22644C70.8391 0.79587 71.3552 1.40089 71.8623 2.0326C72.3517 2.64652 72.8232 3.28713 73.277 3.93663C73.4905 4.25694 73.4104 4.68401 73.0901 4.90644C72.7698 5.11998 72.3428 5.0399 72.1203 4.7196C71.6933 4.09678 71.2395 3.48287 70.7679 2.89564C70.2875 2.29062 69.7892 1.7034 69.2821 1.16066ZM57.1906 2.6999C56.8614 2.50416 56.7457 2.07709 56.9415 1.74789C57.1372 1.41868 57.5643 1.30302 57.8935 1.48986C59.7441 2.56644 62.1108 4.83526 64.1038 7.45108C65.8744 9.78218 67.3692 12.4069 67.9564 14.7202C68.0543 15.0939 67.8229 15.4765 67.4492 15.5655C67.0755 15.6633 66.693 15.432 66.604 15.0583C66.0612 12.9318 64.6644 10.4851 62.9917 8.28743C61.1054 5.82287 58.8989 3.68751 57.1906 2.6999ZM63.4098 1.83686C63.1251 1.57884 63.0984 1.14287 63.3476 0.858151C63.6056 0.573436 64.0415 0.546744 64.3263 0.79587C65.5719 1.89914 66.8887 3.31382 68.0809 4.86195C69.202 6.31222 70.2252 7.87815 70.9904 9.4085C71.1594 9.75549 71.026 10.1737 70.679 10.3427C70.332 10.5118 69.9138 10.3783 69.7448 10.0313C69.0241 8.58994 68.0454 7.09519 66.9777 5.7072C65.8388 4.23024 64.5843 2.88674 63.4098 1.83686ZM39.8764 21.3487C39.7518 21.8737 39.8141 22.4787 40.0009 23.1015C40.081 23.3684 40.1967 23.6442 40.3212 23.9023C40.4547 24.1692 40.606 24.4361 40.7839 24.6941C40.953 24.9522 41.1487 25.1924 41.3533 25.4148C41.558 25.6284 41.7626 25.833 41.985 26.002L41.9939 26.0109C42.5278 26.4291 43.1328 26.7049 43.7289 26.7583C44.5208 26.8295 45.6774 26.1978 46.3714 25.7351L46.5227 25.6283L46.5405 25.6195C46.8074 25.4415 47.0832 25.2725 47.3501 25.1034C47.5103 25.0144 47.6882 24.9877 47.8484 25.0233C48.0085 25.0589 48.1509 25.1568 48.2488 25.2991C48.2755 25.3347 48.2933 25.3614 48.3022 25.397L48.5691 25.8686L48.578 25.8775C48.925 26.5003 49.2631 27.1142 49.619 27.7103C49.966 28.2887 50.313 28.8314 50.6599 29.2941L50.6688 29.3029L50.7044 29.3563C50.74 29.4097 50.7934 29.4898 50.8557 29.561L50.8646 29.5788C51.0781 29.8724 51.3006 30.1749 51.5319 30.4507C51.7543 30.7176 51.9679 30.9401 52.1814 31.0913C52.3326 31.1981 52.475 31.2426 52.6263 31.207C52.7953 31.1714 52.9733 31.029 53.1779 30.7443C53.2224 30.6731 53.2669 30.5931 53.3114 30.5219L53.4448 30.3084L53.4537 30.2995C53.5872 30.0948 53.7206 29.8813 53.8185 29.6677C53.8897 29.5076 53.9431 29.3474 53.9609 29.1784C53.8808 29.1606 53.7829 29.1428 53.685 29.1339H53.6761C52.9555 29.0449 52.2437 28.9649 52.0123 27.5591V27.5502L51.9857 27.3722C51.959 27.1854 51.9412 27.0519 51.9234 26.9718C51.9145 26.9096 51.9056 26.874 51.8967 26.8562V26.8651C51.8967 26.874 51.8967 26.874 51.8967 26.874C51.8344 26.8384 51.7632 26.8028 51.6653 26.7583L51.5853 26.7227H51.5764C51.3361 26.6071 51.1493 26.438 50.998 26.2334C50.8379 26.0198 50.7222 25.7618 50.6511 25.4949C50.5799 25.228 50.5354 24.9344 50.5176 24.6496C50.4998 24.3115 50.5087 23.9823 50.5443 23.7065V23.6976C50.5621 23.582 50.5977 23.4841 50.6599 23.3951L50.6688 23.3773C50.7311 23.2883 50.8201 23.2261 50.918 23.1727C50.9269 23.1727 50.9358 23.1638 50.9447 23.1638C52.9644 22.2563 54.6726 21.7936 56.1585 21.5534C57.3952 21.3576 58.4718 21.3131 59.4416 21.3042C57.4397 19.9785 55.3844 17.861 53.6495 15.5032C51.8789 13.0831 50.4375 10.405 49.7435 8.0561C49.2809 9.4085 48.6136 11.0545 47.4925 12.8518C46.2291 14.8893 40.2145 19.8807 39.8764 21.3487ZM53.0889 12.3001C53.7651 12.0332 54.4324 11.9087 55.0908 11.9798C56.9326 12.1845 58.2672 13.6258 58.107 15.521C58.0447 16.2328 57.7956 17.0157 57.3508 17.8788C57.7244 18.2347 58.1248 18.5995 58.5519 18.9731C59.1658 19.507 59.7886 19.9696 60.4114 20.3611C60.972 20.717 61.5414 21.0017 62.1019 21.2064C62.1553 21.1975 62.2087 21.1886 62.2532 21.1708C62.3066 21.153 62.3511 21.1263 62.3955 21.0996C62.4311 21.0729 62.4756 21.0373 62.5112 21.0017C62.6002 20.8149 62.6625 20.6014 62.6892 20.3611C62.7158 20.0942 62.7158 19.7917 62.6714 19.4625C62.5468 18.4749 62.1197 17.2826 61.488 16.0103C60.794 14.6134 59.8687 13.1276 58.8188 11.7129C57.7956 10.3249 56.6657 9.00812 55.5535 7.90485C54.4947 6.85496 53.4537 6.00081 52.5373 5.47587L52.5284 5.46697C52.1903 5.28013 51.8789 5.13777 51.5942 5.0488L51.5764 5.0399C51.3273 4.96872 51.1137 4.94203 50.9358 4.96872C50.8913 4.97762 50.8646 4.97762 50.8379 4.98652L50.829 4.99541C50.8112 5.02211 50.7845 5.0577 50.7667 5.10218C50.7578 5.11998 50.74 5.14667 50.7222 5.18226L50.6955 5.23564V5.26234V5.27123C50.6066 5.82287 50.6955 6.54355 50.918 7.3799C51.1582 8.27853 51.5586 9.30173 52.0924 10.3872C52.4305 11.0723 52.7597 11.704 53.0889 12.3001ZM60.02 22.6388H60.0022C57.9736 22.6566 55.4289 22.6833 51.8344 24.2315C51.8344 24.3738 51.8344 24.5162 51.8433 24.6585C51.8611 24.8276 51.8789 24.9877 51.9234 25.139C51.959 25.2458 51.9945 25.3436 52.039 25.4148C52.0746 25.4682 52.1102 25.5127 52.1547 25.5394L52.2348 25.575H52.2437L52.2615 25.5839C52.6529 25.7796 52.8576 25.8775 53.0355 26.1711V26.18C53.1868 26.4202 53.2224 26.6693 53.3025 27.132L53.3114 27.1765V27.1854L53.3381 27.3633V27.3722C53.4092 27.7726 53.6228 27.7993 53.8452 27.826C54.9307 27.9506 55.3222 28.4666 55.3222 29.125C55.3222 29.7211 54.9752 30.424 54.557 31.0468C54.5036 31.1269 54.4591 31.1892 54.4324 31.2426C54.3968 31.3049 54.3523 31.3671 54.3168 31.4294L54.299 31.4561C54.2901 31.465 54.2901 31.4739 54.2812 31.4828C53.8096 32.159 53.3292 32.4882 52.8398 32.5772C52.3415 32.6661 51.87 32.506 51.4073 32.1857C50.8201 31.7764 50.3218 31.1091 49.8414 30.4685L49.7702 30.3706L49.699 30.2728L49.5745 30.0948L49.5656 30.077C49.1919 29.5788 48.836 29.0093 48.4801 28.4132C48.1509 27.8527 47.8039 27.2299 47.448 26.5982L47.4391 26.6071C47.3679 26.6515 47.2968 26.696 47.2434 26.7316L46.9853 26.9007L46.9676 26.9096C45.9177 27.5947 44.9923 28.2264 43.5777 28.084C42.7235 27.995 41.8961 27.6125 41.1576 27.043C40.8729 26.8206 40.606 26.5804 40.3657 26.3134C40.1166 26.0465 39.8853 25.744 39.6717 25.4415C39.4671 25.139 39.2803 24.8187 39.1201 24.4895C38.9599 24.1603 38.8265 23.8222 38.7286 23.4841V23.4752C38.4706 22.6299 38.3994 21.7758 38.5774 21.0195C39.3336 17.8254 46.3803 14.3999 48.8983 6.36561V6.35671C49.0139 5.97412 49.1296 5.62713 49.2364 5.30682C49.352 4.98652 49.4677 4.7107 49.5923 4.47937L49.6012 4.47047C49.6634 4.35481 49.7257 4.25694 49.788 4.17686C49.8592 4.07899 49.9393 3.99891 50.0371 3.92773C50.135 3.85656 50.2418 3.80317 50.3663 3.75868C50.482 3.7231 50.6066 3.68751 50.7578 3.66971C51.1226 3.62522 51.5141 3.66081 51.9234 3.78538C52.3238 3.90104 52.7508 4.08789 53.2046 4.34591L53.2135 4.35481C54.2189 4.92424 55.34 5.84066 56.4699 6.95283C57.6444 8.10948 58.8277 9.49747 59.8954 10.9477C60.9987 12.4425 61.9863 14.0173 62.7158 15.5032C63.392 16.8823 63.8547 18.1902 63.9971 19.3112C64.0593 19.7828 64.0593 20.2277 64.006 20.6369C63.9526 21.0373 63.828 21.4021 63.6501 21.7224L63.6412 21.7313C63.1073 22.6744 61.399 22.6566 60.367 22.6477C60.2335 22.6388 60.1089 22.6388 60.02 22.6388ZM14.1453 17.256H34.0753L33.5326 20.281H15.5154V73.0601H93.9811V20.2899H70.5989L71.6933 17.2648H95.0844C96.1432 17.2648 97.0151 18.1368 97.0151 19.1956V73.6117C97.0151 74.5103 96.4012 75.2666 95.5648 75.4801H107.274C108.519 75.4801 109.534 76.4944 109.534 77.7401C109.534 78.9857 108.519 80 107.274 80H2.46305C1.21742 80 0.203125 78.9857 0.203125 77.7401C0.203125 76.4944 1.21742 75.4801 2.46305 75.4801H13.6648C12.8373 75.2666 12.2145 74.5014 12.2145 73.6117V19.1956C12.2145 18.1279 13.0865 17.256 14.1453 17.256ZM51.692 76.3254H58.0447C58.6409 76.3254 59.1302 76.8148 59.1302 77.4109C59.1302 78.007 58.6409 78.4964 58.0447 78.4964H51.692C51.0959 78.4964 50.6066 78.007 50.6066 77.4109C50.6066 76.8148 51.0959 76.3254 51.692 76.3254ZM33.6482 34.0808H36.1217C36.2552 34.0808 36.3619 34.1876 36.3619 34.3211V43.1383C36.3619 43.2718 36.2552 43.3785 36.1217 43.3785H33.6482C33.5148 43.3785 33.408 43.2718 33.408 43.1383V34.3211C33.408 34.1876 33.5148 34.0808 33.6482 34.0808ZM22.4554 31.1002H24.9288C25.0623 31.1002 25.1691 31.207 25.1691 31.3404V43.1383C25.1691 43.2718 25.0623 43.3785 24.9288 43.3785H22.4554C22.3219 43.3785 22.2151 43.2718 22.2151 43.1383V31.3404C22.2151 31.207 22.3219 31.1002 22.4554 31.1002ZM28.0518 29.4275H30.5253C30.6587 29.4275 30.7655 29.5343 30.7655 29.6677V43.1383C30.7655 43.2718 30.6587 43.3785 30.5253 43.3785H28.0518C27.9183 43.3785 27.8116 43.2718 27.8116 43.1383V29.6677C27.8116 29.5343 27.9183 29.4275 28.0518 29.4275ZM22.5977 66.2892C22.055 66.2892 21.619 65.8443 21.619 65.3016C21.619 64.7589 22.055 64.314 22.5977 64.314H87.1301C87.6729 64.314 88.1089 64.7589 88.1089 65.3016C88.1089 65.8443 87.6729 66.2892 87.1301 66.2892H22.5977ZM22.4376 59.0912C21.8948 59.0912 21.4589 58.6464 21.4589 58.1036C21.4589 57.5609 21.8948 57.116 22.4376 57.116H50.1617C50.7044 57.116 51.1404 57.5609 51.1404 58.1036C51.1404 58.6464 50.7044 59.0912 50.1617 59.0912H22.4376ZM53.952 59.0912C53.4092 59.0912 52.9733 58.6464 52.9733 58.1036C52.9733 57.5609 53.4092 57.116 53.952 57.116H87.1301C87.6729 57.116 88.1089 57.5609 88.1089 58.1036C88.1089 58.6464 87.6729 59.0912 87.1301 59.0912H53.952ZM22.4376 52.6763C21.8948 52.6763 21.4589 52.2314 21.4589 51.6887C21.4589 51.1459 21.8948 50.7011 22.4376 50.7011H64.3174C64.8601 50.7011 65.2961 51.1459 65.2961 51.6887C65.2961 52.2314 64.8601 52.6763 64.3174 52.6763H22.4376ZM77.1295 38.8498L76.6936 30.166C76.6847 29.9969 76.8181 29.8457 76.9872 29.8368C77.0406 29.8368 77.094 29.8279 77.1651 29.8279C77.2185 29.8279 77.2808 29.8279 77.3431 29.8279C79.7276 29.8012 81.9163 30.7087 83.5534 32.2124C85.1905 33.716 86.2671 35.8247 86.4451 38.2092C86.454 38.3782 86.3294 38.5295 86.1603 38.5384L77.4765 39.1612C77.3075 39.1701 77.1562 39.0455 77.1473 38.8765C77.1295 38.8587 77.1295 38.8587 77.1295 38.8498ZM77.3342 30.4507L77.7346 38.5117L85.7867 37.9334C85.5642 35.8425 84.5766 34.0008 83.1263 32.6661C81.6049 31.2604 79.5674 30.424 77.3431 30.4418L77.3342 30.4507ZM76.1597 40.0865L80.5105 47.6315C79.1848 48.3966 77.6812 48.797 76.1597 48.797C71.3463 48.797 67.4492 44.9 67.4492 40.0865C67.4492 35.7624 70.6167 32.0967 74.8963 31.4739L76.1597 40.0865Z" fill="white"/>
</svg>
