<svg width="140" height="80" viewBox="0 0 140 80" fill="none" xmlns="http://www.w3.org/2000/svg">
<path fill-rule="evenodd" clip-rule="evenodd" d="M3.15833 74.216H17.4651C16.9374 74.0768 16.4702 73.7682 16.1355 73.3378C15.8008 72.9074 15.6172 72.3792 15.6129 71.8344V2.46102C15.6158 1.80923 15.8766 1.185 16.3384 0.72411C16.8002 0.263226 17.4257 0.00298303 18.0788 0L121.488 0C122.141 0.00298303 122.766 0.263226 123.228 0.72411C123.69 1.185 123.951 1.80923 123.954 2.46102V71.8231C123.953 72.3688 123.771 72.899 123.436 73.3301C123.1 73.7612 122.631 74.0689 122.101 74.2047H137.056C137.435 74.2092 137.809 74.2881 138.158 74.437C138.506 74.5858 138.822 74.8018 139.087 75.0724C139.352 75.3431 139.561 75.6632 139.702 76.0144C139.842 76.3656 139.913 76.7411 139.908 77.1194C139.908 77.8834 139.604 78.6161 139.063 79.1563C138.521 79.6965 137.787 80 137.022 80H3.15833C2.39282 80 1.65867 79.6965 1.11737 79.1563C0.57607 78.6161 0.271973 77.8834 0.271973 77.1194C0.274979 76.3573 0.580403 75.6275 1.12138 75.0898C1.66235 74.552 2.39479 74.2501 3.15833 74.2501V74.216ZM69.931 17.9756C73.7989 17.9756 77.58 19.1203 80.7961 21.265C84.0122 23.4097 86.5189 26.458 87.9991 30.0244C89.4793 33.5909 89.8666 37.5153 89.112 41.3014C88.3574 45.0875 86.4948 48.5653 83.7597 51.2949C81.0246 54.0246 77.5399 55.8835 73.7463 56.6366C69.9527 57.3897 66.0204 57.0032 62.4469 55.5259C58.8734 54.0486 55.819 51.547 53.6701 48.3372C51.5212 45.1275 50.3742 41.3539 50.3742 37.4936C50.3742 32.3171 52.4346 27.3526 56.1022 23.6923C59.7698 20.032 64.7442 17.9756 69.931 17.9756ZM76.8969 38.6958C77.8969 38.0607 77.8969 37.3462 76.8969 36.7791L66.6014 30.8704C65.7946 30.3601 64.9537 30.6663 64.9651 31.721V43.6518C65.0332 44.7859 65.6923 45.1148 66.6582 44.5818L76.8855 38.6958H76.8969ZM69.931 21.9337C73.015 21.9314 76.0305 22.8421 78.5959 24.5505C81.1613 26.2589 83.1614 28.6882 84.3432 31.5312C85.525 34.3742 85.8353 37.5032 85.235 40.5223C84.6347 43.5413 83.1507 46.3149 80.9708 48.4922C78.7908 50.6694 76.0128 52.1525 72.9881 52.7538C69.9635 53.3551 66.8281 53.0476 63.9786 51.8702C61.1291 50.6929 58.6934 48.6985 56.9798 46.1395C55.2661 43.5804 54.3514 40.5716 54.3514 37.4936C54.3514 33.3688 55.9925 29.4128 58.9139 26.4951C61.8353 23.5773 65.798 21.9367 69.931 21.9337ZM19.8288 3.85597H120.045V71.1313H19.8288V3.85597ZM66.0332 75.3048H74.1355C74.5032 75.3048 74.8558 75.4506 75.1158 75.71C75.3758 75.9695 75.5219 76.3214 75.5219 76.6884C75.5189 77.0534 75.3715 77.4024 75.1118 77.6594C74.8521 77.9165 74.5012 78.0607 74.1355 78.0607H66.0332C65.6656 78.0607 65.3129 77.9149 65.0529 77.6554C64.7929 77.396 64.6469 77.044 64.6469 76.6771C64.6469 76.3101 64.7929 75.9582 65.0529 75.6987C65.3129 75.4392 65.6656 75.2934 66.0332 75.2934V75.3048Z" fill="white"/>
</svg>
